<svg width="18" height="24" viewBox="0 0 18 24" fill="none" xmlns="http://www.w3.org/2000/svg">
<g clip-path="url(#clip0_107_73)">
<path d="M10.5 6.375V0H1.125C0.501562 0 0 0.501562 0 1.125V22.875C0 23.4984 0.501562 24 1.125 24H16.875C17.4984 24 18 23.4984 18 22.875V7.5H11.625C11.0063 7.5 10.5 6.99375 10.5 6.375ZM14.0836 16.2825L9.56391 20.7684C9.25219 21.0783 8.74875 21.0783 8.43703 20.7684L3.91734 16.2825C3.44156 15.8105 3.77531 15 4.44469 15H7.5V11.25C7.5 10.8356 7.83563 10.5 8.25 10.5H9.75C10.1644 10.5 10.5 10.8356 10.5 11.25V15H13.5553C14.2247 15 14.5584 15.8105 14.0836 16.2825ZM17.6719 4.92188L13.0828 0.328125C12.8719 0.117188 12.5859 0 12.2859 0H12V6H18V5.71406C18 5.41875 17.8828 5.13281 17.6719 4.92188Z" fill="#AEFEFF"/>
</g>
<defs>
<clipPath id="clip0_107_73">
<rect width="18" height="24" fill="white"/>
</clipPath>
</defs>
</svg>
