<svg width="50" height="50" viewBox="0 0 50 50" fill="none" xmlns="http://www.w3.org/2000/svg">
<g clip-path="url(#clip0_114_110)">
<path d="M16.8945 34.8958C16.9813 34.7656 16.9488 34.6246 16.7969 34.4727C16.6016 34.3207 16.4497 34.299 16.3411 34.4076C16.2543 34.5378 16.2869 34.6788 16.4388 34.8307C16.6341 34.9826 16.786 35.0043 16.8945 34.8958ZM15.9831 33.5612C15.8746 33.4093 15.7444 33.3659 15.5924 33.431C15.4622 33.5178 15.4622 33.648 15.5924 33.8216C15.7444 33.9952 15.8746 34.0495 15.9831 33.9844C16.1133 33.8976 16.1133 33.7565 15.9831 33.5612ZM14.6484 32.2591C14.6918 32.1723 14.6376 32.0855 14.4857 31.9987C14.3338 31.9553 14.247 31.977 14.2253 32.0638C14.1602 32.1723 14.2036 32.2591 14.3555 32.3242C14.5291 32.3676 14.6267 32.3459 14.6484 32.2591ZM15.332 33.0078C15.3754 32.9861 15.3917 32.9373 15.3809 32.8613C15.37 32.7854 15.332 32.7257 15.2669 32.6823C15.1367 32.5304 15.0282 32.4978 14.9414 32.5846C14.8546 32.6714 14.8655 32.7908 14.974 32.9427C15.1042 33.0729 15.2235 33.0946 15.332 33.0078ZM18.1315 35.4492C18.1749 35.2973 18.0773 35.178 17.8385 35.0911C17.6432 35.026 17.5022 35.0694 17.4154 35.2214C17.372 35.3733 17.4696 35.4926 17.7083 35.5794C17.9036 35.6445 18.0447 35.6011 18.1315 35.4492ZM19.4987 35.5469C19.4987 35.3733 19.3685 35.2865 19.1081 35.2865C18.8911 35.2865 18.7826 35.3733 18.7826 35.5469C18.7826 35.7205 18.9019 35.8073 19.1406 35.8073C19.3793 35.8073 19.4987 35.7205 19.4987 35.5469ZM20.7682 35.319C20.7248 35.1671 20.5838 35.1128 20.3451 35.1562C20.1063 35.1996 20.0087 35.2973 20.0521 35.4492C20.0955 35.6228 20.2257 35.6879 20.4427 35.6445C20.6597 35.6011 20.7682 35.4926 20.7682 35.319ZM41.6667 25C41.6667 20.3993 40.0391 16.4714 36.7839 13.2161C33.5286 9.96094 29.6007 8.33333 25 8.33333C20.3993 8.33333 16.4714 9.96094 13.2161 13.2161C9.96094 16.4714 8.33333 20.3993 8.33333 25C8.33333 28.6241 9.3967 31.8848 11.5234 34.7819C13.6502 37.679 16.3845 39.6918 19.7266 40.8203C20.1172 40.8854 20.4047 40.8312 20.5892 40.6576C20.7737 40.4839 20.8659 40.2669 20.8659 40.0065C20.8659 38.878 20.855 37.8472 20.8333 36.9141C20.7031 36.9358 20.5349 36.9629 20.3288 36.9954C20.1226 37.028 19.7374 37.0497 19.1732 37.0605C18.6089 37.0714 18.0881 37.028 17.6107 36.9303C17.1332 36.8327 16.6612 36.6157 16.1947 36.2793C15.7281 35.9429 15.408 35.4926 15.2344 34.9284C14.7352 33.648 14.1168 32.8451 13.3789 32.5195C13.3355 32.4978 13.2867 32.4599 13.2324 32.4056L12.972 32.1452L12.7441 31.8359L12.8743 31.5918L13.5091 31.4779C13.6393 31.4779 13.8021 31.4996 13.9974 31.543C14.1927 31.5864 14.5182 31.7546 14.974 32.0475C15.4297 32.3405 15.7878 32.7257 16.0482 33.2031C16.3954 33.8108 16.8023 34.2665 17.2689 34.5703C17.7355 34.8741 18.2075 35.026 18.6849 35.026C19.1623 35.026 19.5747 34.9881 19.9219 34.9121C20.2691 34.8362 20.5946 34.7331 20.8984 34.6029C21.0503 33.5829 21.4084 32.8342 21.9727 32.3568C20.9093 32.2266 19.9761 32.0258 19.1732 31.7546C18.3702 31.4833 17.5781 31.0601 16.7969 30.485C16.0156 29.9099 15.4134 29.0853 14.9902 28.0111C14.5671 26.9368 14.3555 25.6402 14.3555 24.1211C14.3555 22.4067 14.9306 20.9201 16.0807 19.6615C15.5599 18.316 15.6141 16.8403 16.2435 15.2344C16.6558 15.1042 17.2472 15.1855 18.0176 15.4785C18.788 15.7715 19.4444 16.0916 19.987 16.4388L20.8333 16.9596C22.092 16.5907 23.4809 16.4062 25 16.4062C26.5191 16.4062 27.908 16.5907 29.1667 16.9596C29.4054 16.8077 29.7146 16.6124 30.0944 16.3737C30.4742 16.135 31.0764 15.8529 31.901 15.5273C32.7257 15.2018 33.3442 15.1042 33.7565 15.2344C34.3858 16.8403 34.4401 18.316 33.9193 19.6615C35.0694 20.9201 35.6445 22.4067 35.6445 24.1211C35.6445 25.3581 35.4926 26.4486 35.1888 27.3926C34.885 28.3366 34.4998 29.0961 34.0332 29.6712C33.5666 30.2463 32.9861 30.7292 32.2917 31.1198C31.5972 31.5104 30.9191 31.7925 30.2572 31.9661C29.5953 32.1398 28.852 32.27 28.0273 32.3568C28.7869 33.0295 29.1667 34.0603 29.1667 35.4492C29.1667 36.3173 29.1612 37.283 29.1504 38.3464C29.1395 39.4097 29.1341 39.9631 29.1341 40.0065C29.1341 40.2669 29.2263 40.4839 29.4108 40.6576C29.5953 40.8312 29.8828 40.8854 30.2734 40.8203C33.6155 39.6918 36.3498 37.679 38.4766 34.7819C40.6033 31.8848 41.6667 28.6241 41.6667 25ZM50 9.375V40.625C50 43.2075 49.0831 45.4156 47.2493 47.2493C45.4156 49.0831 43.2075 50 40.625 50H9.375C6.79253 50 4.58442 49.0831 2.75065 47.2493C0.916884 45.4156 0 43.2075 0 40.625V9.375C0 6.79253 0.916884 4.58442 2.75065 2.75065C4.58442 0.916884 6.79253 0 9.375 0H40.625C43.2075 0 45.4156 0.916884 47.2493 2.75065C49.0831 4.58442 50 6.79253 50 9.375Z" fill="#52C2CA"/>
</g>
<defs>
<clipPath id="clip0_114_110">
<rect width="50" height="50" fill="white"/>
</clipPath>
</defs>
</svg>
