<svg width="50" height="50" viewBox="0 0 50 50" fill="none" xmlns="http://www.w3.org/2000/svg">
<g clip-path="url(#clip0_114_113)">
<path d="M7.71484 41.862H15.2344V19.2708H7.71484V41.862ZM15.7227 12.3047C15.701 11.1762 15.3103 10.2431 14.5508 9.50521C13.7912 8.76736 12.7821 8.39844 11.5234 8.39844C10.2648 8.39844 9.23937 8.76736 8.44727 9.50521C7.65516 10.2431 7.25911 11.1762 7.25911 12.3047C7.25911 13.4115 7.64431 14.3392 8.41471 15.0879C9.18511 15.8366 10.1888 16.2109 11.4258 16.2109H11.4583C12.7387 16.2109 13.7695 15.8366 14.5508 15.0879C15.332 14.3392 15.7227 13.4115 15.7227 12.3047ZM34.7656 41.862H42.2852V28.9062C42.2852 25.5642 41.4931 23.036 39.9089 21.3216C38.3246 19.6072 36.2305 18.75 33.6263 18.75C30.6749 18.75 28.4071 20.0195 26.8229 22.5586H26.888V19.2708H19.3685C19.4336 20.7031 19.4336 28.2335 19.3685 41.862H26.888V29.2318C26.888 28.4071 26.964 27.7995 27.1159 27.4089C27.4414 26.6493 27.9297 26.0037 28.5807 25.472C29.2318 24.9403 30.0347 24.6745 30.9896 24.6745C33.5069 24.6745 34.7656 26.378 34.7656 29.7852V41.862ZM50 9.375V40.625C50 43.2075 49.0831 45.4156 47.2493 47.2493C45.4156 49.0831 43.2075 50 40.625 50H9.375C6.79253 50 4.58442 49.0831 2.75065 47.2493C0.916884 45.4156 0 43.2075 0 40.625V9.375C0 6.79253 0.916884 4.58442 2.75065 2.75065C4.58442 0.916884 6.79253 0 9.375 0H40.625C43.2075 0 45.4156 0.916884 47.2493 2.75065C49.0831 4.58442 50 6.79253 50 9.375Z" fill="#52C2CA"/>
</g>
<defs>
<clipPath id="clip0_114_113">
<rect width="50" height="50" fill="white"/>
</clipPath>
</defs>
</svg>
