<svg width="24" height="24" viewBox="0 0 24 24" fill="none" xmlns="http://www.w3.org/2000/svg">
<path fill-rule="evenodd" clip-rule="evenodd" d="M7.49997 17.25C7.49997 17.0511 7.57899 16.8603 7.71964 16.7197C7.86029 16.579 8.05106 16.5 8.24997 16.5H21.75C21.9489 16.5 22.1397 16.579 22.2803 16.7197C22.421 16.8603 22.5 17.0511 22.5 17.25C22.5 17.4489 22.421 17.6397 22.2803 17.7803C22.1397 17.921 21.9489 18 21.75 18H8.24997C8.05106 18 7.86029 17.921 7.71964 17.7803C7.57899 17.6397 7.49997 17.4489 7.49997 17.25ZM7.49997 11.25C7.49997 11.0511 7.57899 10.8603 7.71964 10.7197C7.86029 10.579 8.05106 10.5 8.24997 10.5H21.75C21.9489 10.5 22.1397 10.579 22.2803 10.7197C22.421 10.8603 22.5 11.0511 22.5 11.25C22.5 11.4489 22.421 11.6397 22.2803 11.7803C22.1397 11.921 21.9489 12 21.75 12H8.24997C8.05106 12 7.86029 11.921 7.71964 11.7803C7.57899 11.6397 7.49997 11.4489 7.49997 11.25ZM7.49997 5.25C7.49997 5.05109 7.57899 4.86032 7.71964 4.71967C7.86029 4.57902 8.05106 4.5 8.24997 4.5H21.75C21.9489 4.5 22.1397 4.57902 22.2803 4.71967C22.421 4.86032 22.5 5.05109 22.5 5.25C22.5 5.44891 22.421 5.63968 22.2803 5.78033C22.1397 5.92098 21.9489 6 21.75 6H8.24997C8.05106 6 7.86029 5.92098 7.71964 5.78033C7.57899 5.63968 7.49997 5.44891 7.49997 5.25ZM5.78097 3.219C5.85082 3.28867 5.90623 3.37143 5.94404 3.46255C5.98185 3.55367 6.00131 3.65135 6.00131 3.75C6.00131 3.84865 5.98185 3.94633 5.94404 4.03745C5.90623 4.12857 5.85082 4.21133 5.78097 4.281L3.53097 6.531C3.4613 6.60085 3.37854 6.65626 3.28742 6.69407C3.1963 6.73188 3.09862 6.75134 2.99997 6.75134C2.90132 6.75134 2.80364 6.73188 2.71252 6.69407C2.6214 6.65626 2.53864 6.60085 2.46897 6.531L1.71897 5.781C1.64924 5.71127 1.59392 5.62849 1.55619 5.53738C1.51845 5.44627 1.49902 5.34862 1.49902 5.25C1.49902 5.15139 1.51845 5.05374 1.55619 4.96263C1.59392 4.87152 1.64924 4.78873 1.71897 4.719C1.7887 4.64927 1.87149 4.59396 1.9626 4.55622C2.0537 4.51848 2.15136 4.49905 2.24997 4.49905C2.34859 4.49905 2.44624 4.51848 2.53735 4.55622C2.62846 4.59396 2.71124 4.64927 2.78097 4.719L2.99997 4.9395L4.71897 3.219C4.78864 3.14916 4.8714 3.09374 4.96252 3.05593C5.05364 3.01812 5.15132 2.99866 5.24997 2.99866C5.34862 2.99866 5.4463 3.01812 5.53742 3.05593C5.62854 3.09374 5.7113 3.14916 5.78097 3.219ZM5.78097 9.219C5.85082 9.28867 5.90623 9.37143 5.94404 9.46255C5.98185 9.55367 6.00131 9.65135 6.00131 9.75C6.00131 9.84865 5.98185 9.94633 5.94404 10.0375C5.90623 10.1286 5.85082 10.2113 5.78097 10.281L3.53097 12.531C3.4613 12.6008 3.37854 12.6563 3.28742 12.6941C3.1963 12.7319 3.09862 12.7513 2.99997 12.7513C2.90132 12.7513 2.80364 12.7319 2.71252 12.6941C2.6214 12.6563 2.53864 12.6008 2.46897 12.531L1.71897 11.781C1.57814 11.6402 1.49902 11.4492 1.49902 11.25C1.49902 11.0508 1.57814 10.8598 1.71897 10.719C1.8598 10.5782 2.05081 10.4991 2.24997 10.4991C2.44913 10.4991 2.64014 10.5782 2.78097 10.719L2.99997 10.9395L4.71897 9.219C4.78864 9.14916 4.8714 9.09374 4.96252 9.05593C5.05364 9.01812 5.15132 8.99866 5.24997 8.99866C5.34862 8.99866 5.4463 9.01812 5.53742 9.05593C5.62854 9.09374 5.7113 9.14916 5.78097 9.219ZM5.78097 15.219C5.85082 15.2887 5.90623 15.3714 5.94404 15.4626C5.98185 15.5537 6.00131 15.6513 6.00131 15.75C6.00131 15.8487 5.98185 15.9463 5.94404 16.0374C5.90623 16.1286 5.85082 16.2113 5.78097 16.281L3.53097 18.531C3.4613 18.6008 3.37854 18.6563 3.28742 18.6941C3.1963 18.7319 3.09862 18.7513 2.99997 18.7513C2.90132 18.7513 2.80364 18.7319 2.71252 18.6941C2.6214 18.6563 2.53864 18.6008 2.46897 18.531L1.71897 17.781C1.57814 17.6402 1.49902 17.4492 1.49902 17.25C1.49902 17.0508 1.57814 16.8598 1.71897 16.719C1.8598 16.5782 2.05081 16.4991 2.24997 16.4991C2.44913 16.4991 2.64014 16.5782 2.78097 16.719L2.99997 16.9395L4.71897 15.219C4.78864 15.1492 4.8714 15.0937 4.96252 15.0559C5.05364 15.0181 5.15132 14.9987 5.24997 14.9987C5.34862 14.9987 5.4463 15.0181 5.53742 15.0559C5.62854 15.0937 5.7113 15.1492 5.78097 15.219Z" fill="#072227"/>
</svg>
