<svg width="50" height="50" viewBox="0 0 50 50" fill="none" xmlns="http://www.w3.org/2000/svg">
<g clip-path="url(#clip0_114_115)">
<path d="M41.6667 15.6901C40.4514 16.2326 39.1385 16.6016 37.7279 16.7969C39.2036 15.9288 40.2127 14.6593 40.7552 12.9883C39.3446 13.8129 37.8906 14.3663 36.3932 14.6484C35.0694 13.2161 33.4093 12.5 31.4128 12.5C29.5247 12.5 27.9134 13.1673 26.5788 14.502C25.2441 15.8366 24.5768 17.4479 24.5768 19.3359C24.5768 19.9653 24.6311 20.4861 24.7396 20.8984C21.9401 20.7465 19.3142 20.0412 16.862 18.7826C14.4097 17.5239 12.3264 15.842 10.612 13.737C9.98264 14.822 9.66797 15.9722 9.66797 17.1875C9.66797 19.6615 10.6554 21.5603 12.6302 22.8841C11.6102 22.8624 10.5252 22.5803 9.375 22.0378V22.1029C9.375 23.7305 9.91753 25.179 11.0026 26.4486C12.0877 27.7181 13.4223 28.5048 15.0065 28.8086C14.3772 28.9822 13.8238 29.069 13.3464 29.069C13.0642 29.069 12.6411 29.0256 12.0768 28.9388C12.5326 30.306 13.3409 31.4345 14.502 32.3242C15.663 33.214 16.9813 33.6697 18.457 33.6914C15.9397 35.6445 13.1076 36.6211 9.96094 36.6211C9.3967 36.6211 8.85417 36.5885 8.33333 36.5234C11.5451 38.5634 15.0391 39.5833 18.8151 39.5833C21.2457 39.5833 23.5243 39.1981 25.651 38.4277C27.7778 37.6573 29.6007 36.6265 31.1198 35.3353C32.6389 34.0441 33.9464 32.5575 35.0423 30.8757C36.1382 29.1938 36.952 27.436 37.4837 25.6022C38.0154 23.7684 38.2812 21.9401 38.2812 20.1172C38.2812 19.7266 38.2704 19.4336 38.2487 19.2383C39.6159 18.2617 40.7552 17.079 41.6667 15.6901ZM50 9.375V40.625C50 43.2075 49.0831 45.4156 47.2493 47.2493C45.4156 49.0831 43.2075 50 40.625 50H9.375C6.79253 50 4.58442 49.0831 2.75065 47.2493C0.916884 45.4156 0 43.2075 0 40.625V9.375C0 6.79253 0.916884 4.58442 2.75065 2.75065C4.58442 0.916884 6.79253 0 9.375 0H40.625C43.2075 0 45.4156 0.916884 47.2493 2.75065C49.0831 4.58442 50 6.79253 50 9.375Z" fill="#52C2CA"/>
</g>
<defs>
<clipPath id="clip0_114_115">
<rect width="50" height="50" fill="white"/>
</clipPath>
</defs>
</svg>
