<svg width="48" height="38" viewBox="0 0 48 38" fill="none" xmlns="http://www.w3.org/2000/svg">
<g clip-path="url(#clip0_123_290)">
<path d="M9.90801 0C7.18709 0 5.17365 2.38152 5.26381 4.96421C5.35043 7.44539 5.23792 10.6592 4.42893 13.2799C3.61752 15.9082 2.24505 17.5731 0.00341797 17.787V20.2003C2.24505 20.4142 3.61752 22.0791 4.42893 24.7076C5.23792 27.3283 5.35043 30.5417 5.26381 33.0231C5.17365 35.6054 7.18709 37.9873 9.90838 37.9873H37.7886C40.5097 37.9873 42.5226 35.6058 42.4325 33.0231C42.346 30.5419 42.4584 27.3283 43.2673 24.7076C44.0793 22.0793 45.4481 20.414 47.6897 20.2003V17.787C45.4481 17.5731 44.0793 15.9082 43.2675 13.2799C42.4584 10.6596 42.346 7.44558 42.4325 4.96421C42.5226 2.38189 40.5097 0 37.7886 0H9.90763H9.90801ZM32.3332 23.3836C32.3332 26.9399 29.6807 29.0966 25.2786 29.0966H17.7848C17.5705 29.0966 17.365 29.0114 17.2134 28.8598C17.0619 28.7083 16.9768 28.5027 16.9768 28.2884V9.69894C16.9767 9.59278 16.9976 9.48766 17.0382 9.38958C17.0788 9.2915 17.1384 9.20237 17.2134 9.1273C17.2885 9.05223 17.3776 8.99268 17.4757 8.95205C17.5737 8.91142 17.6788 8.89051 17.785 8.89051H25.2358C28.9063 8.89051 31.3152 10.879 31.3152 13.9317C31.3152 16.0744 29.6946 17.9926 27.6302 18.3285V18.4404C30.4409 18.7487 32.3332 20.6951 32.3332 23.3836ZM24.4613 11.4527H20.1887V17.488H23.7875C26.5693 17.488 28.1035 16.3678 28.1035 14.3653C28.1035 12.489 26.7843 11.4527 24.4614 11.4527H24.4613ZM20.1887 19.8827V26.5337H24.6187C27.5149 26.5337 29.0494 25.3715 29.0494 23.1873C29.0494 21.0026 27.4722 19.8824 24.4324 19.8824H20.1887V19.8827Z" fill="#7E13F8"/>
</g>
<defs>
<clipPath id="clip0_123_290">
<rect width="47.69" height="38" fill="white"/>
</clipPath>
</defs>
</svg>
