<svg width="45" height="50" viewBox="0 0 45 50" fill="none" xmlns="http://www.w3.org/2000/svg">
<g clip-path="url(#clip0_122_182)">
<path d="M44.445 14.8736C44.4446 14.0328 44.2649 13.2899 43.9018 12.6524C43.545 12.0253 43.0104 11.5 42.2938 11.0843C36.3769 7.66942 30.4544 4.2649 24.5396 0.846501C22.945 -0.0748527 21.3988 -0.0413458 19.816 0.893376C17.461 2.28365 5.66999 9.04546 2.15645 11.0824C0.709578 11.921 0.00541178 13.2041 0.00506456 14.872C0.00280762 21.7397 0.00506456 28.6071 0.00280762 35.475C0.00315484 36.2972 0.175203 37.0257 0.522426 37.6538C0.87937 38.2996 1.42121 38.8396 2.15454 39.2645C5.66826 41.3015 17.4608 48.0628 19.8153 49.4534C21.3988 50.3887 22.945 50.422 24.5401 49.5003C30.4551 46.0817 36.378 42.6774 42.2957 39.2625C43.029 38.8376 43.5709 38.2974 43.9278 37.6521C44.2745 37.0239 44.4469 36.2955 44.4472 35.4731C44.4472 35.4731 44.4472 21.7415 44.445 14.8736Z" fill="#A9B9CB"/>
<path d="M24.4995 0.891338C22.9075 -0.0277586 21.3639 0.00574839 19.7837 0.93804C17.4325 2.32467 5.66079 9.06894 2.15298 11.1007C0.708363 11.937 0.00541178 13.2169 0.00506456 14.8804C0.00280762 21.7302 0.00506456 28.5799 0.00280762 35.4299C0.00315484 36.25 0.174856 36.9766 0.521558 37.603C0.877981 38.2472 1.41895 38.7858 2.15107 39.2096C3.31681 39.8835 4.48342 40.556 5.6509 41.2269L38.1321 8.74568C33.5873 6.12866 29.0413 3.51373 24.4995 0.891338Z" fill="#7F8B99"/>
<path d="M26.818 22.043L33.7345 22.0918C33.7345 19.2101 30.8175 12.1528 22.4545 12.1528C17.1262 12.1528 9.96301 15.5403 9.96301 25.2795C9.96301 35.0186 16.9851 38.1944 22.4545 38.1944C31.3116 38.1944 33.4285 32.0656 33.4285 28.6021L26.83 28.2248C26.83 28.2248 27.0066 32.2309 22.4193 32.2309C18.1849 32.2309 17.4783 27.0437 17.4783 25.2795C17.4783 22.5977 18.4319 18.2927 22.4193 18.2927C26.4068 18.2927 26.818 22.043 26.818 22.043Z" fill="white"/>
</g>
<defs>
<clipPath id="clip0_122_182">
<rect width="44.45" height="50" fill="white"/>
</clipPath>
</defs>
</svg>
