<svg width="51" height="51" viewBox="0 0 51 51" fill="none" xmlns="http://www.w3.org/2000/svg">
<path d="M9.40628 43.3516L5.82672 3.1875H45.1732L41.5889 43.3452L25.4761 47.8125L9.40628 43.3516Z" fill="#1572B6"/>
<path d="M25.5 44.3986L38.5209 40.7888L41.5841 6.47217H25.5V44.3986Z" fill="#33A9DC"/>
<path d="M25.5 21.0231H32.0184L32.4679 15.9789H25.5V11.0526H37.8516L37.7336 12.3738L36.524 25.9494H25.5V21.0231Z" fill="white"/>
<path d="M25.5303 33.8162L25.508 33.8225L20.0223 32.3403L19.6717 28.4117H14.7263L15.4164 36.1462L25.5064 38.948L25.5303 38.9417V33.8162Z" fill="#EBEBEB"/>
<path d="M31.5993 25.7406L31.0064 32.3371L25.5128 33.8193V38.9448L35.6108 36.1462L35.6857 35.3143L36.5415 25.7406H31.5993Z" fill="white"/>
<path d="M25.5175 11.0526V15.9789H13.6186L13.5198 14.8712L13.2951 12.3738L13.1771 11.0526H25.5175ZM25.5 21.0231V25.9494H20.0828L19.984 24.8417L19.7609 22.3443L19.643 21.0231H25.5Z" fill="#EBEBEB"/>
</svg>
