<svg width="46" height="46" viewBox="0 0 46 46" fill="none" xmlns="http://www.w3.org/2000/svg">
<g clip-path="url(#clip0_406_21)">
<path d="M35.2188 0H10.7812C4.82693 0 0 4.82693 0 10.7812V35.2188C0 41.1731 4.82693 46 10.7812 46H35.2188C41.1731 46 46 41.1731 46 35.2188V10.7812C46 4.82693 41.1731 0 35.2188 0Z" fill="#2396ED"/>
<path d="M25.3695 21.944H29.0921V18.5759H25.3695V21.944ZM20.9381 21.944H24.6605V18.5759H20.9381V21.944ZM16.595 21.944H20.3176V18.5759H16.595V21.944ZM12.252 21.944H15.8862V18.5759H12.2522L12.252 21.944ZM7.82054 21.944H11.5431V18.5759H7.82054V21.944ZM12.2522 17.8669H15.886V14.499H12.2522V17.8669ZM16.5952 17.8669H20.3176V14.499H16.595L16.5952 17.8669ZM20.9381 17.8669H24.6605V14.499H20.9381V17.8669ZM20.9381 13.7898H24.6605V10.4219H20.9381V13.7899V13.7898ZM40.9687 20.4375C40.9687 20.4375 39.3733 18.9306 36.094 19.4625C35.7395 16.8921 32.9919 15.3854 32.9919 15.3854C32.9919 15.3854 30.4216 18.4875 32.2828 21.9442C31.7511 22.2101 30.8647 22.5646 29.5352 22.5646H5.1617C4.71841 24.2487 4.71841 35.4161 16.9496 35.4161C25.7241 35.4161 32.2828 31.3391 35.3849 23.8939C39.9938 24.2485 40.9687 20.4375 40.9687 20.4375Z" fill="white"/>
</g>
<defs>
<clipPath id="clip0_406_21">
<rect width="46" height="46" fill="white"/>
</clipPath>
</defs>
</svg>
