<svg width="40" height="40" viewBox="0 0 40 40" fill="none" xmlns="http://www.w3.org/2000/svg">
<g clip-path="url(#clip0_123_369)">
<path d="M40 30.9799C39.4179 31.2001 38.7752 31.1997 38.1934 30.9786C37.6116 30.7575 37.1308 30.3312 36.8417 29.78L31.0917 21.8283L30.2584 20.7166L23.5867 29.79C23.315 30.318 22.8603 30.7291 22.3075 30.9463C21.7548 31.1634 21.1419 31.1719 20.5834 30.97L29.18 19.4366L21.1834 9.01829C21.7584 8.81108 22.3872 8.80833 22.964 9.01051C23.5407 9.21269 24.0302 9.60744 24.35 10.1283L30.31 18.1783L36.3034 10.1616C36.5772 9.64294 37.032 9.24294 37.5814 9.03767C38.1309 8.83241 38.7365 8.83618 39.2834 9.04829L36.18 13.1666L31.9767 18.6383C31.86 18.7424 31.7666 18.87 31.7026 19.0128C31.6387 19.1555 31.6056 19.3102 31.6056 19.4666C31.6056 19.623 31.6387 19.7777 31.7026 19.9205C31.7666 20.0632 31.86 20.1908 31.9767 20.295L39.9834 30.9816L40 30.9799ZM0.00335333 19.2933L0.703354 15.835C2.62669 8.99662 10.4667 6.15162 15.86 10.385C19.0184 12.8666 19.8067 16.38 19.6517 20.34H1.86002C1.57169 27.4116 6.67502 31.6816 13.2 29.5C14.2578 29.1192 15.2046 28.482 15.9556 27.6455C16.7066 26.8089 17.2384 25.7992 17.5034 24.7066C17.8484 23.5966 18.4167 23.4066 19.46 23.7266C19.2862 25.0806 18.8075 26.3775 18.0601 27.5198C17.3128 28.6621 16.3161 29.6201 15.145 30.3216C13.2107 31.3797 10.9914 31.799 8.8044 31.5197C6.61739 31.2404 4.57469 30.2768 2.96835 28.7666C1.38007 26.9789 0.420147 24.7208 0.23502 22.3366C0.23502 21.945 0.101687 21.5783 0.0116867 21.2266C0.00357338 20.5828 -0.000315595 19.9389 1.99938e-05 19.295L0.00335333 19.2933ZM1.88169 18.8166H17.9717C17.8717 13.69 14.6367 10.0533 10.3217 10.02C5.51836 9.95329 2.08169 13.51 1.87002 18.7933L1.88169 18.8166Z" fill="#52C2CA"/>
</g>
<defs>
<clipPath id="clip0_123_369">
<rect width="40" height="40" fill="white"/>
</clipPath>
</defs>
</svg>
