<svg width="34" height="50" viewBox="0 0 34 50" fill="none" xmlns="http://www.w3.org/2000/svg">
<g clip-path="url(#clip0_123_443)">
<path d="M8.33456 50C12.9346 50 16.6679 46.2667 16.6679 41.6667V33.3334H8.33456C3.73455 33.3334 0.0012207 37.0667 0.0012207 41.6667C0.0012207 46.2667 3.73455 50 8.33456 50Z" fill="#0ACF83"/>
<path d="M0.0012207 25C0.0012207 20.4 3.73455 16.6666 8.33456 16.6666H16.6679V33.3333H8.33456C3.73455 33.3333 0.0012207 29.6 0.0012207 25Z" fill="#A259FF"/>
<path d="M0.00170898 8.33333C0.00170898 3.73333 3.73504 0 8.33504 0H16.6684V16.6667H8.33504C3.73504 16.6667 0.00170898 12.9333 0.00170898 8.33333Z" fill="#F24E1E"/>
<path d="M16.6678 0H25.0012C29.6012 0 33.3345 3.73333 33.3345 8.33333C33.3345 12.9333 29.6012 16.6667 25.0012 16.6667H16.6678V0Z" fill="#FF7262"/>
<path d="M33.3345 25C33.3345 29.6 29.6012 33.3333 25.0012 33.3333C20.4012 33.3333 16.6678 29.6 16.6678 25C16.6678 20.4 20.4012 16.6666 25.0012 16.6666C29.6012 16.6666 33.3345 20.4 33.3345 25Z" fill="#1ABCFE"/>
</g>
<defs>
<clipPath id="clip0_123_443">
<rect width="33.3357" height="50" fill="white"/>
</clipPath>
</defs>
</svg>
