<svg width="32" height="43" viewBox="0 0 32 43" fill="none" xmlns="http://www.w3.org/2000/svg">
<g clip-path="url(#clip0_122_200)">
<path d="M0.00292969 34.6692L0.263012 34.3051L12.5632 10.9658L12.5892 10.7187L7.16715 0.533868C6.71265 -0.319272 5.43367 -0.103537 5.2847 0.851529L0.00292969 34.6692Z" fill="#FFC24A"/>
<path d="M16.5408 18.4227L20.5781 14.288L16.5396 6.57868C16.1563 5.8489 15.0859 5.8467 14.7067 6.57868L12.549 10.6933V11.0437L16.5407 18.4227H16.5408Z" fill="#F4BD62"/>
<path d="M0.00183105 34.6693L0.119683 34.5507L0.547968 34.3768L16.2873 18.6959L16.4868 18.153L12.5604 10.671L0.00183105 34.6693Z" fill="#F6820C"/>
<path d="M17.0451 42.5775L31.2897 34.6333L27.2219 9.58122C27.0947 8.79742 26.1331 8.4876 25.572 9.04954L0.00183105 34.6693L14.1646 42.5769C14.6049 42.8227 15.1006 42.9518 15.6048 42.9519C16.109 42.952 16.6048 42.8231 17.0451 42.5775Z" fill="#FDE068"/>
<path d="M31.1619 34.5666L27.1251 9.70478C26.9989 8.92686 26.1992 8.60503 25.6424 9.16281L0.15979 34.6205L14.1671 42.4497C14.604 42.6936 15.096 42.8217 15.5963 42.8219C16.0967 42.822 16.5887 42.6941 17.0257 42.4504L31.1621 34.5665L31.1619 34.5666Z" fill="#FCCA3F"/>
<path d="M17.045 42.3433C16.6047 42.5889 16.1089 42.7178 15.6048 42.7176C15.1006 42.7175 14.6048 42.5885 14.1646 42.3427L0.115885 34.5488L0.00195312 34.6692L14.1646 42.5768C14.6049 42.8226 15.1006 42.9517 15.6048 42.9518C16.109 42.9519 16.6048 42.823 17.0452 42.5774L31.2897 34.6332L31.2548 34.4186L17.0452 42.3434L17.045 42.3433Z" fill="#EEAB37"/>
</g>
<defs>
<clipPath id="clip0_122_200">
<rect width="31.3654" height="43" fill="white"/>
</clipPath>
</defs>
</svg>
