<svg width="46" height="46" viewBox="0 0 46 46" fill="none" xmlns="http://www.w3.org/2000/svg">
<g clip-path="url(#clip0_123_453)">
<path d="M45.1325 20.9507L25.0484 0.867731C23.8925 -0.288918 22.0166 -0.288918 20.8592 0.867731L16.6887 5.03828L21.9792 10.3288C23.2086 9.91338 24.6184 10.1921 25.5985 11.1721C26.5831 12.1584 26.8599 13.5803 26.4344 14.8136L31.533 19.9125C32.7666 19.4875 34.1899 19.7624 35.1751 20.7493C36.552 22.1257 36.552 24.3565 35.1751 25.7338C33.7978 27.1113 31.567 27.1113 30.1889 25.7338C29.1532 24.697 28.8973 23.1759 29.4217 21.9L24.6668 17.1451L24.6662 29.658C25.0109 29.8284 25.3257 30.0535 25.5985 30.3246C26.9754 31.701 26.9754 33.932 25.5985 35.3104C24.2212 36.6872 21.9893 36.6872 20.6139 35.3104C19.237 33.932 19.237 31.7012 20.6139 30.3248C20.9439 29.9947 21.3361 29.7332 21.7677 29.5556V16.926C21.3354 16.7496 20.9431 16.488 20.6139 16.1568C19.5707 15.115 19.3198 13.5842 19.8544 12.3032L14.6391 7.08743L0.867891 20.8578C-0.289297 22.0155 -0.289297 23.8916 0.867891 25.0485L20.9523 45.1318C22.1086 46.2886 23.9841 46.2886 25.1419 45.1318L45.1323 25.1417C46.2891 23.9845 46.2891 22.1073 45.1323 20.9507" fill="#DE4C36"/>
</g>
<defs>
<clipPath id="clip0_123_453">
<rect width="46" height="46" fill="white"/>
</clipPath>
</defs>
</svg>
