<svg width="44" height="48" viewBox="0 0 44 48" fill="none" xmlns="http://www.w3.org/2000/svg">
<g clip-path="url(#clip0_122_212)">
<path d="M38.8056 0C41.1628 0 43.0784 1.89171 43.1166 4.24034L43.1171 4.31158V43.5948C43.1171 45.952 41.2249 47.8676 38.8768 47.9058L38.8056 47.9064H4.31292C1.9557 47.9064 0.0400796 46.0141 0.00184804 43.6662L0.00134277 43.5948V4.31158C0.00134277 1.95385 1.89355 0.0387368 4.24168 0.000505263L4.31292 0H38.8056ZM38.8056 2.39528H4.31292C3.27309 2.39528 2.42358 3.22863 2.3973 4.26223L2.39663 4.31158V43.5948C2.39663 44.6346 3.22998 45.4841 4.26358 45.5104L4.31292 45.5111H38.8056C39.8459 45.5111 40.6949 44.6779 40.7212 43.6443L40.7219 43.5948V4.31158C40.7219 3.25524 39.8626 2.39528 38.8056 2.39528ZM10.7803 31.1394L16.1698 35.9299L10.7803 40.7207V31.1392V31.1394ZM15.5709 7.18602V20.786C17.9626 20.0076 21.3059 19.1624 24.5534 19.1624C27.5146 19.1624 29.2871 20.3267 30.2525 21.3034C32.2919 23.3666 32.3404 25.9889 32.3377 26.3387V26.3485L32.3382 40.7205H27.5476V26.4145C27.524 25.2963 26.9851 23.9532 24.5534 23.9532C19.7312 23.9532 14.3279 26.3544 14.1676 26.4261L14.1642 26.4276L10.7803 27.9606V7.18585H15.5709V7.18602ZM32.3382 7.18602C32.0148 9.90703 30.9117 12.5155 28.7453 14.9708H23.9545C25.8373 12.5005 27.0195 9.90114 27.5476 7.18602H32.3382Z" fill="#430098"/>
</g>
<defs>
<clipPath id="clip0_122_212">
<rect width="43.1177" height="48" fill="white"/>
</clipPath>
</defs>
</svg>
