<svg width="48" height="48" viewBox="0 0 48 48" fill="none" xmlns="http://www.w3.org/2000/svg">
<path d="M8.85298 40.8015L5.48248 3H42.5175L39.1425 40.7955L23.9775 45L8.85298 40.8015Z" fill="#E44F26"/>
<path d="M24 41.7871L36.255 38.3896L39.138 6.09155H24V41.7871Z" fill="#F1662A"/>
<path d="M24 20.1104H17.865L17.442 15.3629H24V10.7264H12.375L12.486 11.9714L13.6245 24.7469H24V20.1104ZM24 32.1509L23.979 32.1569L18.816 30.7634L18.486 27.0659H13.8315L14.481 34.3439L23.979 36.9809L24 36.9749V32.1509Z" fill="#EBEBEB"/>
<path d="M23.9835 20.1104V24.7469H29.6925L29.1555 30.7604L23.9835 32.1554V36.9794L33.489 34.344L33.558 33.561L34.647 21.3554L34.761 20.1104H23.9835ZM23.9835 10.7264V15.3629H35.1825L35.2755 14.3219L35.487 11.9714L35.598 10.7264H23.9835Z" fill="white"/>
</svg>
