<svg width="36" height="48" viewBox="0 0 36 48" fill="none" xmlns="http://www.w3.org/2000/svg">
<g clip-path="url(#clip0_122_186)">
<path d="M11.4553 37.1061C11.4553 37.1061 9.62436 38.1708 12.7584 38.5311C16.5552 38.9642 18.4956 38.9022 22.6798 38.1102C22.6798 38.1102 23.7799 38.8 25.3161 39.3975C15.9365 43.4174 4.088 39.1646 11.4553 37.1061ZM10.3091 31.8602C10.3091 31.8602 8.25553 33.3804 11.3919 33.7048C15.4478 34.1232 18.6507 34.1574 24.1932 33.0902C24.1932 33.0902 24.9598 33.8674 26.1652 34.2924C14.8246 37.6086 2.19324 34.5539 10.3091 31.8602Z" fill="#5382A1"/>
<path d="M19.9716 22.9616C22.2829 25.6224 19.3644 28.0169 19.3644 28.0169C19.3644 28.0169 25.2328 24.9875 22.5377 21.1938C20.0206 17.6562 18.0902 15.8983 28.5402 9.83777C28.5402 9.83777 12.1372 13.9344 19.9716 22.9615" fill="#E76F00"/>
<path d="M32.377 40.9862C32.377 40.9862 33.7319 42.1025 30.8847 42.9663C25.4707 44.6064 8.35075 45.1017 3.59486 43.0316C1.88531 42.288 5.09132 41.2559 6.09974 41.0392C7.15144 40.8111 7.75255 40.8537 7.75255 40.8537C5.85128 39.5143 -4.53642 43.4836 2.47616 44.6202C21.6003 47.7216 37.3375 43.2237 32.377 40.9862ZM12.3357 26.425C12.3357 26.425 3.6276 28.4934 9.25206 29.2444C11.6268 29.5623 16.3609 29.4905 20.7707 29.1209C24.3746 28.8171 27.9933 28.1706 27.9933 28.1706C27.9933 28.1706 26.7225 28.7148 25.8032 29.3426C16.9601 31.6684 -0.123197 30.5864 4.79486 28.2074C8.95407 26.1969 12.3359 26.425 12.3359 26.425M27.9574 35.1568C36.947 30.4856 32.7905 25.9966 29.8894 26.6015C29.1783 26.7493 28.8613 26.8775 28.8613 26.8775C28.8613 26.8775 29.1253 26.4641 29.6294 26.2852C35.3686 24.2674 39.7826 32.2362 27.7767 35.3922C27.7767 35.3924 27.9159 35.2681 27.9574 35.1568Z" fill="#5382A1"/>
<path d="M22.5377 0.0514693C22.5377 0.0514693 27.5162 5.03182 17.8158 12.6898C10.0372 18.8329 16.042 22.3356 17.8126 26.3374C13.272 22.2408 9.93978 18.6344 12.1754 15.278C15.4564 10.3508 24.5463 7.96204 22.5377 0.0513306" fill="#E76F00"/>
<path d="M13.2192 47.8148C21.8479 48.3672 35.0983 47.5083 35.4121 43.4254C35.4121 43.4254 34.8089 44.9733 28.2809 46.2025C20.9161 47.5884 11.8327 47.4266 6.44519 46.5383C6.44533 46.5383 7.54808 47.4512 13.2193 47.8148" fill="#5382A1"/>
</g>
<defs>
<clipPath id="clip0_122_186">
<rect width="35.52" height="48" fill="white"/>
</clipPath>
</defs>
</svg>
