<svg width="41" height="41" viewBox="0 0 41 41" fill="none" xmlns="http://www.w3.org/2000/svg">
<g clip-path="url(#clip0_122_179)">
<path d="M0 0H41V41H0V0Z" fill="#F7DF1E"/>
<path d="M10.7804 34.2625L13.9179 32.3637C14.5233 33.4369 15.0739 34.345 16.3947 34.345C17.6607 34.345 18.4591 33.8498 18.4591 31.9234V18.823H22.312V31.9779C22.312 35.9685 19.9728 37.785 16.5598 37.785C13.4776 37.785 11.6885 36.1887 10.7803 34.2622M24.4048 33.8496L27.5419 32.0333C28.3678 33.382 29.4412 34.3727 31.34 34.3727C32.9366 34.3727 33.9546 33.5745 33.9546 32.4736C33.9546 31.1526 32.9087 30.6846 31.1473 29.9143L30.1843 29.5011C27.4045 28.318 25.5606 26.8318 25.5606 23.6943C25.5606 20.8044 27.7623 18.6026 31.2026 18.6026C33.652 18.6026 35.4134 19.4559 36.6793 21.6851L33.6793 23.6118C33.0186 22.4284 32.3034 21.9606 31.2024 21.9606C30.074 21.9606 29.3584 22.6762 29.3584 23.6118C29.3584 24.7677 30.074 25.2358 31.7252 25.9514L32.6884 26.3641C35.9636 27.7679 37.8074 29.1989 37.8074 32.4186C37.8074 35.8867 35.0829 37.7855 31.4225 37.7855C27.8448 37.7855 25.5329 36.0792 24.4046 33.8498" fill="black"/>
</g>
<defs>
<clipPath id="clip0_122_179">
<rect width="41" height="41" fill="white"/>
</clipPath>
</defs>
</svg>
