<svg width="41" height="35" viewBox="0 0 41 35" fill="none" xmlns="http://www.w3.org/2000/svg">
<g clip-path="url(#clip0_123_295)">
<path d="M34.0212 23.8231C34.1917 23.7252 34.3335 23.5841 34.4323 23.4141C34.5311 23.2441 34.5834 23.0511 34.584 22.8544L34.6042 16.3663C34.6048 16.1697 34.6571 15.9766 34.7559 15.8066C34.8547 15.6365 34.9965 15.4955 35.167 15.3975L38.6841 13.3773C38.8545 13.2794 39.0477 13.228 39.2443 13.2283C39.4409 13.2287 39.6339 13.2807 39.804 13.3791C39.9742 13.4776 40.1154 13.619 40.2136 13.7893C40.3119 13.9596 40.3636 14.1527 40.3636 14.3493V26.1449C40.3636 26.3421 40.3116 26.5359 40.2127 26.7066C40.1139 26.8772 39.9718 27.0188 39.8008 27.117L26.5276 34.7409C26.358 34.8382 26.1659 34.8896 25.9704 34.8898C25.7749 34.89 25.5827 34.839 25.4129 34.742L14.9965 28.7841C14.8249 28.6861 14.6822 28.5445 14.5829 28.3736C14.4837 28.2027 14.4314 28.0086 14.4313 27.811V21.8632C14.4313 21.8566 14.4392 21.8522 14.4459 21.8554C14.4515 21.8588 14.4593 21.8554 14.4593 21.8475V21.8408C14.4593 21.8364 14.4615 21.8319 14.4661 21.8297L23.0452 16.9011C23.0531 16.8965 23.0496 16.8843 23.0406 16.8843C23.0383 16.8843 23.036 16.8833 23.0343 16.8816C23.0326 16.8799 23.0317 16.8776 23.0317 16.8753L23.0485 11.0441C23.0493 10.8469 22.9981 10.653 22.9 10.482C22.802 10.3109 22.6605 10.1687 22.4899 10.0698C22.3193 9.97084 22.1257 9.91865 21.9285 9.91846C21.7313 9.91827 21.5376 9.9701 21.3668 10.0687L14.9908 13.7429C14.8206 13.8409 14.6277 13.8925 14.4314 13.8925C14.235 13.8925 14.0421 13.8409 13.8719 13.7429L7.47574 10.06C7.30534 9.9619 7.11212 9.9103 6.91548 9.91043C6.71884 9.91056 6.52569 9.9624 6.35542 10.0608C6.18515 10.1591 6.04374 10.3005 5.9454 10.4708C5.84705 10.6411 5.79522 10.8343 5.79511 11.0309V21.5697C5.79525 21.7661 5.74379 21.9591 5.64587 22.1294C5.54795 22.2997 5.40701 22.4412 5.23716 22.5399C5.06731 22.6386 4.87452 22.6909 4.6781 22.6916C4.48167 22.6923 4.28851 22.6414 4.11794 22.544L0.568281 20.5143C0.396396 20.4161 0.253571 20.2742 0.154324 20.1029C0.0550778 19.9317 0.0029487 19.7372 0.00323604 19.5392L0.0347676 1.11848C0.0352705 0.92217 0.087313 0.729432 0.185689 0.559547C0.284065 0.389662 0.425326 0.248588 0.59534 0.150436C0.765354 0.0522836 0.958162 0.000495242 1.15447 0.000251213C1.35079 7.18338e-06 1.54372 0.051316 1.71398 0.149045L13.873 7.13233C14.0429 7.22991 14.2354 7.28126 14.4314 7.28126C14.6273 7.28126 14.8198 7.22991 14.9897 7.13233L27.1451 0.14873C27.3156 0.0507702 27.5089 -0.000606232 27.7056 -0.00024222C27.9023 0.000121793 28.0954 0.0522134 28.2655 0.150804C28.4357 0.249394 28.577 0.391013 28.6751 0.561446C28.7732 0.731879 28.8248 0.925127 28.8246 1.12179V19.5468C28.8247 19.7439 28.7729 19.9375 28.6743 20.1082C28.5757 20.2789 28.4339 20.4205 28.2631 20.5189L21.8972 24.1851C21.7262 24.2836 21.5842 24.4256 21.4856 24.5966C21.3871 24.7676 21.3354 24.9616 21.3359 25.1589C21.3363 25.3563 21.3889 25.5501 21.4882 25.7206C21.5875 25.8912 21.7301 26.0325 21.9016 26.1302L25.4131 28.1293C25.5828 28.2259 25.7747 28.2765 25.97 28.2761C26.1653 28.2757 26.357 28.2243 26.5263 28.127L34.0213 23.8229L34.0212 23.8231ZM34.7578 7.29504C34.7579 7.49332 34.8106 7.68802 34.9106 7.85928C35.0105 8.03053 35.1541 8.17222 35.3266 8.26989C35.4992 8.36756 35.6946 8.41771 35.8929 8.41524C36.0911 8.41276 36.2852 8.35775 36.4553 8.2558L39.8187 6.23778C39.9848 6.1383 40.1222 5.99752 40.2177 5.82916C40.3132 5.66079 40.3634 5.47057 40.3636 5.27702V1.16452C40.3633 0.966328 40.3104 0.771769 40.2104 0.600667C40.1104 0.429564 39.9668 0.288034 39.7942 0.190497C39.6217 0.0929596 39.4264 0.042902 39.2282 0.0454244C39.0301 0.0479468 38.8361 0.102959 38.6661 0.204856L35.3028 2.22287C35.1367 2.32235 34.9992 2.46315 34.9037 2.63154C34.8082 2.79994 34.7579 2.9902 34.7578 3.1838V7.29614V7.29504Z" fill="#007FFF"/>
</g>
<defs>
<clipPath id="clip0_123_295">
<rect width="40.365" height="35" fill="white"/>
</clipPath>
</defs>
</svg>
