<svg width="53" height="36" viewBox="0 0 53 36" fill="none" xmlns="http://www.w3.org/2000/svg">
<g clip-path="url(#clip0_123_348)">
<path d="M15.7128 23.7556L17.3178 28.9634C17.6784 30.1459 17.8288 30.9713 17.7686 31.4417C18.6464 29.0907 19.2598 26.5286 19.6087 23.7556H21.5387C20.7088 28.2701 19.6143 31.5508 18.2557 33.5973C17.1971 35.1744 16.0375 35.9629 14.7747 35.9629C14.438 35.9629 14.0229 35.8612 13.5304 35.6592V34.571C13.771 34.6062 14.0534 34.6251 14.3781 34.6251C14.9672 34.6251 15.442 34.4618 15.8032 34.136C16.2358 33.7389 16.4523 33.2927 16.4523 32.7981C16.4523 32.4604 16.2834 31.7673 15.9472 30.7189L13.7109 23.7556H15.7127H15.7128ZM3.42872 20.5547L6.36855 29.5244H6.38671L9.34459 20.5547H11.7612C12.2904 25.003 12.6029 29.0731 12.6989 32.7623H10.6614C10.5897 29.3136 10.3912 26.0707 10.0664 23.033H10.0487L6.9461 32.7623H5.39449L2.31066 23.033H2.29251C2.06371 25.9504 1.91971 29.1932 1.85968 32.7623H0.00170898C0.121778 28.4217 0.422259 24.3528 0.903153 20.5547H3.42883H3.42872Z" fill="#00758F"/>
<path d="M36.3625 20.3735C39.5248 20.3735 41.106 22.3938 41.106 26.4326C41.106 28.6272 40.6305 30.285 39.6804 31.4049C39.5091 31.6095 39.3198 31.7863 39.1205 31.9501L41.3584 33.0567L41.3563 33.0566L40.5617 34.4287L37.6473 32.7282C37.1643 32.8713 36.6327 32.9428 36.0535 32.9428C34.5008 32.9428 33.341 32.4902 32.5741 31.5863C31.7324 30.5864 31.3117 29.0122 31.3117 26.8664C31.3117 24.6841 31.7865 23.0327 32.7369 21.9113C33.6025 20.8856 34.8113 20.3734 36.3625 20.3734V20.3735ZM26.6786 20.3913C27.8088 20.3913 28.8365 20.6937 29.7622 21.2964L29.292 22.3441C28.4999 22.0074 27.719 21.8384 26.9488 21.8384C26.3239 21.8384 25.8424 21.9888 25.5068 22.2914C25.1693 22.5914 24.9605 22.9774 24.9605 23.448C24.9605 24.1711 25.4756 24.7981 26.4268 25.3279C26.7384 25.4982 27.0489 25.6705 27.3583 25.8448L27.4293 25.8847L27.4649 25.9047L27.536 25.9446L27.5715 25.9647L27.6424 26.0047C28.3624 26.4106 29.0399 26.798 29.0399 26.798C29.991 27.4731 30.4651 28.1929 30.4651 29.3785C30.4651 30.4138 30.0857 31.2637 29.3294 31.9287C28.5725 32.5907 27.5558 32.9227 26.2825 32.9227C25.0916 32.9227 23.9374 32.5406 22.8195 31.7828L23.3424 30.7342C24.3045 31.2164 25.1751 31.4573 25.9569 31.4573C26.6901 31.4573 27.2641 31.2936 27.6793 30.9703C28.0936 30.6447 28.3419 30.1905 28.3419 29.6146C28.3419 28.8897 27.8377 28.2701 26.9127 27.7503C26.6232 27.5904 26.3346 27.4289 26.0468 27.2658L25.9759 27.2257C25.8457 27.1521 25.7146 27.0777 25.5862 27.0047L25.5166 26.9651C24.892 26.6099 24.352 26.2995 24.352 26.2995C23.4273 25.6231 22.9637 24.8974 22.9637 23.7017C22.9637 22.7128 23.3094 21.9135 23.9999 21.3054C24.6921 20.696 25.5851 20.3913 26.6786 20.3913ZM44.8225 20.5547V31.2606H48.6636V32.7623H42.8743V20.5547H44.8225ZM50.7981 31.2652V31.519H50.3758V32.7609H50.0529V31.519H49.6142V31.2652H50.7982H50.7981ZM51.5779 31.2652L51.9834 32.2848L52.3559 31.2652H52.8135V32.7609H52.5093V31.6226L52.0853 32.7609H51.8659L51.4412 31.6226H51.4249V32.7609H51.137V31.2652H51.578H51.5779ZM36.1636 21.8748C34.3001 21.8748 33.3678 23.4128 33.3678 26.4867C33.3678 28.2475 33.6148 29.5243 34.108 30.3201C34.5647 31.0566 35.2801 31.4242 36.2542 31.4242C38.1177 31.4242 39.0499 29.8742 39.0499 26.7757C39.0499 25.0396 38.8028 23.7737 38.3103 22.9775C37.853 22.2426 37.138 21.8748 36.1637 21.8748H36.1636Z" fill="#F29111"/>
<path d="M31.2793 0.75642C31.8974 -0.762594 34.059 0.387755 34.8978 0.918368C35.1034 1.05112 35.3392 1.33159 35.5749 1.43526C35.9426 1.4497 36.3101 1.47848 36.6784 1.49385C37.3693 1.65621 38.0165 1.78887 38.561 2.09894C41.0911 3.58897 42.7381 5.10737 44.2539 7.6154C44.5778 8.14663 44.7396 8.7215 45.0042 9.29636C45.3714 10.1532 45.7841 11.0527 46.2103 11.863C46.4011 12.2471 46.5487 12.6743 46.8137 12.9987C46.9172 13.147 47.2111 13.1908 47.3867 13.2794C47.8724 13.5307 48.4607 13.7216 48.9175 14.0166C49.7705 14.5484 50.5952 15.1822 51.3449 15.831C51.6243 16.0815 51.8147 16.436 52.081 16.7009V16.8346C51.8446 16.9071 51.6091 16.9814 51.3734 17.0409C50.8586 17.1731 50.4026 17.1432 49.9031 17.2756C49.5945 17.3651 49.2113 17.4832 48.8876 17.5132L48.9175 17.5434C49.1079 18.0875 50.1382 18.53 50.6094 18.8554C51.1817 19.2685 51.712 19.7694 52.1388 20.3446C52.2862 20.4914 52.4336 20.625 52.5803 20.7714C52.6829 20.9197 52.7117 21.1116 52.8155 21.2438V21.2886C52.7006 21.2481 52.618 21.1707 52.5397 21.0898L52.493 21.041C52.4462 20.9925 52.3991 20.9449 52.3453 20.9056C52.0206 20.6838 51.6982 20.4185 51.3734 20.2123C50.8152 19.8581 50.1677 19.6525 49.5945 19.2969C49.2704 19.0905 48.9614 18.8554 48.6525 18.6192C48.3724 18.4122 48.064 18.0147 47.888 17.7196C47.7844 17.5567 47.7701 17.3651 47.6517 17.2472C47.6729 17.0503 47.8533 16.9918 48.0353 16.9437L48.0772 16.9327C48.14 16.9164 48.2015 16.9001 48.2552 16.8785C49.0199 16.5538 49.9317 16.436 51.1091 16.4655C51.0647 16.1699 50.329 15.8015 50.0942 15.6245C49.6228 15.2847 49.1236 14.9302 48.6235 14.621C48.3585 14.459 47.9019 14.3408 47.6083 14.2085C47.2111 14.0461 46.3282 13.8838 46.1081 13.5746C45.7341 13.0871 45.4655 12.5056 45.2048 11.9183L45.1338 11.758C45.1101 11.7046 45.0864 11.6512 45.0626 11.5978C44.7544 10.8905 44.3715 10.153 44.0626 9.42881C43.901 9.07551 43.8269 8.76544 43.6499 8.42659C42.5764 6.34725 40.9876 4.60636 39.0612 3.38205C38.4282 2.98367 37.7223 2.61501 36.9431 2.36445C36.5015 2.23108 35.9715 2.30483 35.5011 2.20251H35.1914C34.9271 2.12803 34.7065 1.84787 34.5003 1.70016C34.0449 1.39091 33.5887 1.18326 33.0441 0.96262C32.8532 0.874116 32.3083 0.668018 32.1181 0.830276C32.0003 0.859881 31.9406 0.904339 31.9116 1.02255C31.7944 1.19894 31.8974 1.46466 31.9704 1.62733C32.1913 2.09873 32.5 2.3789 32.7801 2.77727C33.0293 3.13056 33.3389 3.52894 33.5156 3.91307C33.8968 4.7388 34.0744 5.65366 34.4277 6.47928C34.5587 6.78977 34.7659 7.14307 34.9566 7.42312C35.1183 7.64542 35.4121 7.80613 35.5011 8.08752C35.6783 8.38254 35.2357 9.35598 35.1333 9.66513C34.7501 10.8748 34.8244 12.5563 35.2657 13.6048L35.2892 13.6601L35.3127 13.7161C35.4738 14.1001 35.6463 14.5137 36.0747 14.6211C36.1042 14.5918 36.0747 14.6071 36.1332 14.5918C36.2368 13.7802 36.266 12.9986 36.5458 12.3636C36.7074 11.9665 37.0302 11.6859 37.2514 11.3618C37.3989 11.4501 37.3989 11.7163 37.4868 11.8925C37.6783 12.3495 37.8839 12.8505 38.1199 13.3088C38.6043 14.2526 39.1493 15.1677 39.7669 15.9933C39.9737 16.2882 40.2672 16.6128 40.5319 16.8784C40.6498 16.9813 40.7818 17.0407 40.8704 17.173H40.8993V17.2176C40.458 17.0549 40.1783 16.5984 39.8263 16.3318C39.1637 15.8308 38.3701 15.0784 37.9134 14.3565C37.7223 13.942 37.5158 13.5448 37.3099 13.1324V13.1026C37.2219 13.2204 37.2514 13.3373 37.2074 13.5156C37.0164 14.2526 37.1635 15.0934 36.5015 15.3585C35.7512 15.669 35.1915 14.8575 34.9566 14.4887C34.2061 13.2647 34.0005 11.1998 34.5298 9.53299C34.6474 9.16402 34.6634 8.7215 34.8686 8.42689C34.8243 8.16056 34.619 8.08773 34.5003 7.92454C34.2944 7.64562 34.1181 7.32069 33.9569 7.01093C33.6472 6.40584 33.4269 5.68285 33.1918 5.03392C33.0884 4.76892 33.0588 4.50289 32.9558 4.25203C32.78 3.86913 32.456 3.48499 32.2061 3.14624C31.8676 2.65936 30.8819 1.71573 31.2793 0.75642ZM36.1039 3.64622C36.1432 3.68562 36.1906 3.72008 36.2397 3.75401L36.2989 3.79465C36.3778 3.84932 36.4543 3.90688 36.5011 3.98528C36.5754 4.08905 36.5892 4.19148 36.6781 4.29546C36.6781 4.64999 36.5754 4.88569 36.3679 5.03258C36.3679 5.03258 36.3538 5.04805 36.3393 5.06249C36.2217 4.82617 36.1186 4.59109 36.0002 4.35498C35.8543 4.14888 35.6482 3.98538 35.5293 3.74989H35.5007V3.72028C35.6783 3.67644 35.8543 3.64622 36.1039 3.64622Z" fill="#00758F"/>
</g>
<defs>
<clipPath id="clip0_123_348">
<rect width="52.8171" height="36" fill="white"/>
</clipPath>
</defs>
</svg>
