<svg width="49" height="48" viewBox="0 0 49 48" fill="none" xmlns="http://www.w3.org/2000/svg">
<path d="M35.6242 45.0029C35.4457 45.0974 35.4607 45.1274 35.6317 45.0404C35.6844 45.0189 35.7327 44.9879 35.7742 44.9489C35.7742 44.9174 35.7742 44.9174 35.6242 45.0029ZM35.9842 44.8079C35.8987 44.8784 35.8987 44.8784 36.0007 44.8319C36.0384 44.8143 36.0729 44.7905 36.1027 44.7614C36.1027 44.7209 36.0787 44.7299 35.9842 44.8079ZM36.2182 44.6669C36.1327 44.7374 36.1327 44.7374 36.2347 44.6909C36.2726 44.6729 36.3071 44.6485 36.3367 44.6189C36.3367 44.5814 36.3127 44.5889 36.2182 44.6669ZM36.4552 44.5274C36.3697 44.5979 36.3697 44.5979 36.4687 44.5499C36.5242 44.5199 36.5707 44.4884 36.5707 44.4794C36.5707 44.4419 36.5467 44.4494 36.4552 44.5274ZM36.7747 44.3159C36.6112 44.4254 36.5542 44.4959 36.7042 44.4179C36.8047 44.3564 36.9757 44.2214 36.9457 44.2214C36.8812 44.2454 36.8272 44.2859 36.7732 44.3159H36.7747ZM22.43 0.0110253C22.3205 0.0185254 21.9919 0.048526 21.7039 0.0725265C14.8818 0.690539 8.49917 4.36261 4.45359 10.0192C2.21789 13.1217 0.764653 16.7182 0.217504 20.5029C0.0240005 21.823 0 22.213 0 24.0025C0 25.7905 0.0240005 26.1746 0.217504 27.4946C1.52403 36.5113 7.93816 44.0804 16.6323 46.8855C18.1969 47.385 19.8364 47.73 21.7039 47.9415C22.43 48.0195 25.5695 48.0195 26.2955 47.9415C29.5236 47.5815 32.2492 46.785 34.9462 45.4094C35.3602 45.1994 35.4382 45.1439 35.3827 45.0974C34.067 43.3583 32.7625 41.6107 31.4691 39.8548L27.6336 34.6752L22.829 27.5576C21.2308 25.1744 19.6162 22.8023 17.9854 20.4414C17.9689 20.4414 17.9479 23.605 17.9389 27.4631C17.9224 34.2207 17.9224 34.4952 17.8369 34.6512C17.7549 34.8397 17.608 34.9924 17.4229 35.0817C17.2743 35.1522 17.1408 35.1672 16.4313 35.1672H15.6198L15.4083 35.0352C15.2758 34.9502 15.1682 34.8317 15.0963 34.6917L14.9943 34.4802L15.0018 25.0735L15.0183 15.6668L15.1668 15.4793C15.2616 15.3641 15.3784 15.2687 15.5103 15.1988C15.7068 15.1043 15.7848 15.0893 16.5963 15.0893C17.5489 15.0893 17.7064 15.1268 17.9569 15.4013C19.9032 18.2962 21.8328 21.2023 23.7455 24.1195C26.864 28.8476 31.1211 35.2992 33.2137 38.4643L37.0193 44.2229L37.2068 44.0984C39.0357 42.883 40.693 41.4275 42.1344 39.7708C45.1577 36.3104 47.1196 32.0518 47.785 27.5051C47.9785 26.1851 48.0025 25.7935 48.0025 24.0055C48.0025 22.216 47.9785 21.8335 47.785 20.5134C46.4784 11.4968 40.0643 3.9276 31.3701 1.12105C29.7453 0.606419 28.0729 0.256157 26.378 0.0755266C25.9235 0.0290256 22.8215 -0.0264755 22.4315 0.0140253L22.43 0.0110253ZM32.2507 14.5268C32.3622 14.5816 32.4618 14.6581 32.5434 14.7519C32.6251 14.8457 32.6872 14.9548 32.7262 15.0728C32.7667 15.1988 32.7742 17.8074 32.7667 23.683L32.7502 32.1192L31.2666 29.8391L29.7741 27.5576V21.433C29.7741 17.4624 29.7906 15.2363 29.8116 15.1268C29.885 14.8758 30.0535 14.6632 30.2811 14.5343C30.4671 14.4398 30.5391 14.4323 31.2816 14.4323C31.9761 14.4323 32.0932 14.4398 32.2492 14.5268H32.2507Z" fill="black"/>
</svg>
