<svg width="51" height="31" viewBox="0 0 51 31" fill="none" xmlns="http://www.w3.org/2000/svg">
<g clip-path="url(#clip0_123_352)">
<path d="M24.9908 30.9106C24.8197 30.9106 24.66 30.865 24.5116 30.7851L22.9941 29.8837C22.7658 29.7581 22.88 29.7125 22.9485 29.6897C23.2565 29.587 23.3136 29.5641 23.633 29.3817C23.6673 29.3588 23.713 29.3702 23.7472 29.393L24.9111 30.0891C24.9567 30.1119 25.0137 30.1119 25.0479 30.0891L29.6006 27.4533C29.6463 27.4305 29.6692 27.3848 29.6692 27.3278V22.0677C29.6692 22.0105 29.6463 21.965 29.6006 21.9421L25.0479 19.3178C25.0023 19.2948 24.9452 19.2948 24.9111 19.3178L20.3583 21.9421C20.3127 21.9649 20.2898 22.022 20.2898 22.0676V27.3277C20.2898 27.3734 20.3127 27.4304 20.3583 27.4533L21.6021 28.1721C22.2753 28.5144 22.6974 28.115 22.6974 27.7157V22.524C22.6974 22.4556 22.7545 22.3871 22.8344 22.3871H23.4162C23.4848 22.3871 23.5532 22.4441 23.5532 22.524V27.7157C23.5532 28.6171 23.0625 29.142 22.2067 29.142C21.9443 29.142 21.739 29.142 21.157 28.8567L19.959 28.1721C19.6623 28.001 19.4797 27.6814 19.4797 27.3392V22.079C19.4797 21.7367 19.6623 21.4172 19.959 21.2461L24.5116 18.6103C24.7969 18.4505 25.1849 18.4505 25.4701 18.6103L30.0228 21.2461C30.3195 21.4172 30.5021 21.7367 30.5021 22.079V27.3392C30.5021 27.6814 30.3195 28.001 30.0228 28.1721L25.4701 30.8079C25.3218 30.8764 25.1507 30.9106 24.9909 30.9106H24.9908ZM26.3943 27.2935C24.3976 27.2935 23.9868 26.3807 23.9868 25.6048C23.9868 25.5363 24.0438 25.4679 24.1237 25.4679H24.7171C24.7855 25.4679 24.8425 25.5135 24.8425 25.582C24.9339 26.1867 25.1963 26.4834 26.4058 26.4834C27.3642 26.4834 27.7751 26.2666 27.7751 25.7531C27.7751 25.4564 27.6609 25.2397 26.1662 25.0914C24.9224 24.9658 24.1465 24.692 24.1465 23.6993C24.1465 22.775 24.9225 22.2273 26.2232 22.2273C27.6837 22.2273 28.4026 22.7294 28.4939 23.8247C28.4939 23.8591 28.4825 23.8932 28.4597 23.9275C28.4368 23.9503 28.4026 23.9731 28.3683 23.9731H27.775C27.7179 23.9731 27.6609 23.9275 27.6495 23.8704C27.5126 23.2429 27.1588 23.0375 26.2232 23.0375C25.1735 23.0375 25.0479 23.4026 25.0479 23.6764C25.0479 24.0073 25.1963 24.11 26.6111 24.2926C28.0146 24.4752 28.6765 24.7376 28.6765 25.7189C28.665 26.723 27.8435 27.2935 26.3943 27.2935Z" fill="#539E43"/>
<path d="M10.8649 10.3378C10.8649 10.1325 10.7507 9.93839 10.5682 9.83571L5.73021 7.05164C5.65024 7.00593 5.55902 6.98312 5.4678 6.97167H5.42209C5.33086 6.97167 5.23954 7.00593 5.15967 7.05164L0.321696 9.83571C0.139053 9.93839 0.0250244 10.1324 0.0250244 10.3378L0.0364766 17.8229C0.0364766 17.9256 0.0935403 18.0283 0.184763 18.074C0.276085 18.1311 0.390114 18.1311 0.470082 18.074L3.34548 16.4309C3.52802 16.3282 3.64215 16.1342 3.64215 15.9289V12.4259C3.64215 12.2205 3.75618 12.0265 3.93882 11.9239L5.15967 11.2164C5.25099 11.1593 5.35367 11.1364 5.45634 11.1364C5.55902 11.1364 5.66169 11.1593 5.74166 11.2164L6.96251 11.9239C7.14515 12.0265 7.25918 12.2204 7.25918 12.4259V15.9289C7.25918 16.1342 7.37331 16.3282 7.55585 16.4309L10.4313 18.074C10.4757 18.102 10.5271 18.1168 10.5796 18.1168C10.6321 18.1168 10.6835 18.102 10.7279 18.074C10.8192 18.0283 10.8763 17.9256 10.8763 17.8229L10.8649 10.3378ZM34.1191 0.0342826C34.0279 -0.0114275 33.9138 -0.0114275 33.8338 0.0342826C33.7426 0.0913463 33.6855 0.182569 33.6855 0.285244V7.70204C33.6855 7.77046 33.6513 7.83888 33.5828 7.88459C33.5144 7.91875 33.4459 7.91875 33.3775 7.88459L32.168 7.18857C32.0793 7.13808 31.979 7.11153 31.877 7.11153C31.7749 7.11153 31.6747 7.13808 31.586 7.18857L26.748 9.9841C26.5655 10.0868 26.4513 10.2808 26.4513 10.4861V16.0657C26.4513 16.2711 26.5655 16.4652 26.748 16.5678L31.586 19.3634C31.6747 19.4139 31.7749 19.4404 31.877 19.4404C31.979 19.4404 32.0793 19.4139 32.168 19.3634L37.006 16.5678C37.1885 16.4652 37.3026 16.2712 37.3026 16.0657V2.1566C37.3026 1.9398 37.1885 1.7459 37.006 1.64312L34.1192 0.0342826H34.1191ZM33.6741 14.2287C33.6741 14.2858 33.6513 14.3314 33.6056 14.3542L31.9512 15.3126C31.9281 15.3239 31.9027 15.3298 31.877 15.3298C31.8513 15.3298 31.8259 15.3239 31.8028 15.3126L30.1483 14.3542C30.1026 14.3314 30.0798 14.2743 30.0798 14.2287V12.3118C30.0798 12.2547 30.1026 12.2091 30.1483 12.1863L31.8028 11.2277C31.8259 11.2165 31.8513 11.2106 31.877 11.2106C31.9027 11.2106 31.9281 11.2165 31.9512 11.2277L33.6056 12.1863C33.6513 12.209 33.6741 12.2662 33.6741 12.3118V14.2287ZM50.2191 12.2662C50.4017 12.1635 50.5044 11.9695 50.5044 11.764V10.4062C50.5044 10.2009 50.3903 10.0069 50.2191 9.90423L45.4153 7.12015C45.3267 7.06966 45.2264 7.04311 45.1244 7.04311C45.0223 7.04311 44.922 7.06966 44.8334 7.12015L39.9954 9.91558C39.8127 10.0183 39.6987 10.2123 39.6987 10.4176V15.9973C39.6987 16.2027 39.8128 16.3967 39.9954 16.4993L44.7991 19.2378C44.9817 19.3405 45.1985 19.3405 45.3697 19.2378L48.2793 17.6177C48.3706 17.572 48.4277 17.4693 48.4277 17.3666C48.4277 17.264 48.3706 17.1613 48.2793 17.1156L43.4185 14.32C43.3272 14.263 43.2701 14.1718 43.2701 14.0691V12.3233C43.2701 12.2206 43.3272 12.118 43.4185 12.0723L44.936 11.205C44.9805 11.1771 45.0319 11.1623 45.0844 11.1623C45.1369 11.1623 45.1883 11.1771 45.2327 11.205L46.7503 12.0723C46.8416 12.1293 46.8986 12.2205 46.8986 12.3233V13.6925C46.8986 13.7952 46.9557 13.8979 47.047 13.9435C47.0914 13.9715 47.1428 13.9863 47.1953 13.9863C47.2478 13.9863 47.2992 13.9715 47.3437 13.9435L50.2191 12.2662Z" fill="#333333"/>
<path d="M45.0501 12.0037C45.067 11.9925 45.0869 11.9866 45.1071 11.9866C45.1274 11.9866 45.1473 11.9925 45.1642 12.0037L46.0885 12.54C46.1226 12.5629 46.1455 12.597 46.1455 12.6426V13.7153C46.1455 13.7609 46.1227 13.7952 46.0885 13.818L45.1642 14.3543C45.1473 14.3654 45.1274 14.3714 45.1071 14.3714C45.0869 14.3714 45.067 14.3654 45.0501 14.3543L44.1259 13.818C44.0917 13.7952 44.0688 13.7609 44.0688 13.7153V12.6427C44.0688 12.597 44.0916 12.5628 44.1259 12.5401L45.0501 12.0037Z" fill="#539E43"/>
<path d="M23.77 9.9155L18.9435 7.14288C18.8961 7.11893 18.8464 7.09981 18.7951 7.08582L13.3866 16.3511C13.4314 16.4058 13.4855 16.4521 13.5464 16.488L18.373 19.2607C18.5099 19.3406 18.6696 19.3634 18.8179 19.3177L23.8956 10.0297C23.8613 9.98412 23.8156 9.94976 23.77 9.9156V9.9155Z" fill="url(#paint0_linear_123_352)"/>
<path fill-rule="evenodd" clip-rule="evenodd" d="M18.2132 6.12732L18.1448 6.16158H18.236L18.2132 6.12732Z" fill="url(#paint1_linear_123_352)"/>
<path fill-rule="evenodd" clip-rule="evenodd" d="M23.7814 16.4764C23.9184 16.3966 24.021 16.2596 24.0667 16.1113L18.7722 7.07435C18.6352 7.05154 18.4868 7.0629 18.3615 7.14277L13.5691 9.90414L18.7379 19.329C18.8131 19.3167 18.8861 19.2937 18.9547 19.2606L23.7813 16.4765L23.7814 16.4764Z" fill="url(#paint2_linear_123_352)"/>
<path fill-rule="evenodd" clip-rule="evenodd" d="M24.2265 16.3853L24.1923 16.3282V16.4081L24.2264 16.3853H24.2265Z" fill="url(#paint3_linear_123_352)"/>
<path fill-rule="evenodd" clip-rule="evenodd" d="M23.7815 16.4765L18.9663 19.2492C18.8983 19.2839 18.8251 19.307 18.7495 19.3177L18.8408 19.4888L24.1808 16.3967V16.3282L24.0439 16.1C24.0211 16.2597 23.9184 16.3966 23.7815 16.4765Z" fill="url(#paint4_linear_123_352)"/>
<path fill-rule="evenodd" clip-rule="evenodd" d="M23.7815 16.4765L18.9663 19.2492C18.8983 19.2839 18.8251 19.307 18.7495 19.3177L18.8408 19.4888L24.1808 16.3967V16.3282L24.0439 16.1C24.0211 16.2597 23.9184 16.3966 23.7815 16.4765Z" fill="url(#paint5_linear_123_352)"/>
</g>
<defs>
<linearGradient id="paint0_linear_123_352" x1="17.9346" y1="13.8469" x2="31.1214" y2="6.68245" gradientUnits="userSpaceOnUse">
<stop offset="0.1376" stop-color="#41873F"/>
<stop offset="0.4032" stop-color="#54A044"/>
<stop offset="0.7136" stop-color="#66B848"/>
<stop offset="0.9081" stop-color="#6CC04A"/>
</linearGradient>
<linearGradient id="paint1_linear_123_352" x1="14.1184" y1="6.13192" x2="23.0051" y2="6.13192" gradientUnits="userSpaceOnUse">
<stop offset="0.09192" stop-color="#6CC04A"/>
<stop offset="0.2864" stop-color="#66B848"/>
<stop offset="0.5968" stop-color="#54A044"/>
<stop offset="0.8624" stop-color="#41873F"/>
</linearGradient>
<linearGradient id="paint2_linear_123_352" x1="13.1084" y1="13.1961" x2="24.2241" y2="13.1961" gradientUnits="userSpaceOnUse">
<stop offset="0.09192" stop-color="#6CC04A"/>
<stop offset="0.2864" stop-color="#66B848"/>
<stop offset="0.5968" stop-color="#54A044"/>
<stop offset="0.8624" stop-color="#41873F"/>
</linearGradient>
<linearGradient id="paint3_linear_123_352" x1="20.8645" y1="16.3572" x2="24.2018" y2="16.3572" gradientUnits="userSpaceOnUse">
<stop offset="0.09192" stop-color="#6CC04A"/>
<stop offset="0.2864" stop-color="#66B848"/>
<stop offset="0.5968" stop-color="#54A044"/>
<stop offset="0.8624" stop-color="#41873F"/>
</linearGradient>
<linearGradient id="paint4_linear_123_352" x1="13.1085" y1="17.8037" x2="24.2241" y2="17.8037" gradientUnits="userSpaceOnUse">
<stop offset="0.09192" stop-color="#6CC04A"/>
<stop offset="0.2864" stop-color="#66B848"/>
<stop offset="0.5968" stop-color="#54A044"/>
<stop offset="0.8624" stop-color="#41873F"/>
</linearGradient>
<linearGradient id="paint5_linear_123_352" x1="25.8435" y1="8.94712" x2="23.0275" y2="23.703" gradientUnits="userSpaceOnUse">
<stop stop-color="#41873F"/>
<stop offset="0.3288" stop-color="#418B3D"/>
<stop offset="0.6352" stop-color="#419637"/>
<stop offset="0.9319" stop-color="#3FA92D"/>
<stop offset="1" stop-color="#3FAE2A"/>
</linearGradient>
<clipPath id="clip0_123_352">
<rect width="50.5521" height="31" fill="white"/>
</clipPath>
</defs>
</svg>
