<svg width="54" height="28" viewBox="0 0 54 28" fill="none" xmlns="http://www.w3.org/2000/svg">
<g clip-path="url(#clip0_122_192)">
<path d="M26.5515 27.917C41.2137 27.917 53.0997 21.6676 53.0997 13.9585C53.0997 6.24944 41.2137 0 26.5515 0C11.8894 0 0.00341797 6.24944 0.00341797 13.9585C0.00341797 21.6676 11.8894 27.917 26.5515 27.917Z" fill="url(#paint0_radial_122_192)"/>
<path d="M26.55 26.88C40.6394 26.88 52.0611 21.0948 52.0611 13.9585C52.0611 6.82214 40.6394 1.03699 26.55 1.03699C12.4606 1.03699 1.03894 6.82214 1.03894 13.9585C1.03894 21.0948 12.4606 26.88 26.55 26.88Z" fill="#6181B6"/>
<path d="M31.7145 18.1482L32.9796 11.6356C33.27 10.163 33.0211 9.06372 32.2745 8.37928C31.5485 7.71558 30.3041 7.38372 28.4789 7.38372H26.2804L26.9026 4.14817C26.9233 4.02372 26.9026 3.89928 26.8196 3.79558C26.7367 3.69187 26.633 3.65039 26.5085 3.65039H23.4804C23.273 3.65039 23.107 3.79558 23.0656 3.98224L21.7174 10.8889C21.593 10.1008 21.3026 9.43706 20.8048 8.8978C19.913 7.8815 18.5233 7.36298 16.6359 7.36298H10.8078C10.6004 7.36298 10.4345 7.50817 10.393 7.69483L7.67594 21.7156C7.6552 21.84 7.67594 21.9645 7.7589 22.0682C7.84186 22.1719 7.94557 22.2134 8.07001 22.2134H11.1189C11.3263 22.2134 11.4922 22.0682 11.5337 21.8815L12.1974 18.5008H14.4582C15.6404 18.5008 16.6567 18.3763 17.4241 18.1274C18.233 17.8578 18.9589 17.4222 19.6019 16.8208C20.1204 16.3437 20.5559 15.8045 20.8878 15.2237L20.3485 18.0237C20.3278 18.1482 20.3485 18.2726 20.4315 18.3763C20.5145 18.48 20.6182 18.5215 20.7426 18.5215H23.7708C23.9782 18.5215 24.1441 18.3763 24.1856 18.1896L25.6789 10.5156H27.753C28.6448 10.5156 28.8937 10.6815 28.9767 10.7645C29.0389 10.8267 29.1633 11.0756 29.0182 11.843L27.8152 18.0445C27.7945 18.1689 27.8152 18.2934 27.8982 18.3971C27.9811 18.5008 28.0848 18.5422 28.2093 18.5422H31.3204C31.507 18.48 31.673 18.3348 31.7145 18.1482ZM17.6937 12.7556C17.507 13.7304 17.1545 14.4356 16.6359 14.8296C16.1174 15.2237 15.267 15.4311 14.147 15.4311H12.7989L13.7737 10.4119H15.5159C16.8019 10.4119 17.3204 10.6815 17.5278 10.9096C17.7974 11.2415 17.8596 11.8845 17.6937 12.7556ZM44.6567 8.8978C43.7648 7.8815 42.3752 7.36298 40.4878 7.36298H34.6182C34.4108 7.36298 34.2448 7.50817 34.2033 7.69483L31.4863 21.6948C31.4656 21.8193 31.4863 21.9437 31.5693 22.0474C31.6522 22.1511 31.7559 22.1926 31.8804 22.1926H34.9293C35.1367 22.1926 35.3026 22.0474 35.3441 21.8608L36.0078 18.48H38.2685C39.4508 18.48 40.4671 18.3556 41.2345 18.1067C42.0433 17.8371 42.7693 17.4015 43.4122 16.8C43.9515 16.3022 44.4078 15.7422 44.7396 15.1408C45.0715 14.5393 45.3204 13.8756 45.4656 13.1496C45.8182 11.3452 45.5485 9.93483 44.6567 8.8978ZM41.4833 12.7556C41.2967 13.7304 40.9441 14.4356 40.4256 14.8296C39.9071 15.2237 39.0567 15.4311 37.9367 15.4311H36.5885L37.5633 10.4119H39.3056C40.5915 10.4119 41.11 10.6815 41.3174 10.9096C41.6078 11.2415 41.67 11.8845 41.4833 12.7556Z" fill="white"/>
<path d="M15.5159 9.99704C16.6774 9.99704 17.4448 10.2044 17.8388 10.64C18.2329 11.0756 18.3159 11.8015 18.1085 12.8385C17.9011 13.917 17.4862 14.7052 16.8848 15.1615C16.2833 15.6178 15.3707 15.8459 14.147 15.8459H12.3011L13.4418 9.99704H15.5159ZM8.0907 21.7778H11.1396L11.8655 18.0652H14.4788C15.6403 18.0652 16.5737 17.9407 17.3203 17.6919C18.067 17.443 18.7307 17.0489 19.3529 16.4682C19.8714 15.9911 20.2862 15.4726 20.5974 14.9126C20.9085 14.3526 21.1366 13.7304 21.2611 13.0459C21.5929 11.3867 21.344 10.1007 20.5351 9.16741C19.7262 8.23408 18.4403 7.77778 16.6774 7.77778H10.8077L8.0907 21.7778ZM23.5011 4.06519H26.5292L25.8033 7.77778H28.4996C30.2003 7.77778 31.3618 8.06815 32.0048 8.66963C32.6477 9.27111 32.8344 10.2252 32.5855 11.5526L31.3203 18.0652H28.2507L29.4536 11.8637C29.5988 11.1585 29.5366 10.6815 29.3085 10.4326C29.0803 10.1837 28.5618 10.0385 27.7944 10.0385H25.3677L23.8122 18.0652H20.784L23.5011 4.06519ZM39.3055 9.99704C40.467 9.99704 41.2344 10.2044 41.6285 10.64C42.0225 11.0756 42.1055 11.8015 41.8981 12.8385C41.6907 13.917 41.2759 14.7052 40.6744 15.1615C40.0729 15.6178 39.1603 15.8459 37.9366 15.8459H36.0907L37.2314 9.99704H39.3055ZM31.8803 21.7778H34.9292L35.6551 18.0652H38.2685C39.4299 18.0652 40.3633 17.9407 41.1099 17.6919C41.8566 17.443 42.5203 17.0489 43.1425 16.4682C43.661 15.9911 44.0759 15.4726 44.387 14.9126C44.6981 14.3526 44.9262 13.7304 45.0507 13.0459C45.3825 11.3867 45.1336 10.1007 44.3247 9.16741C43.5159 8.23408 42.2299 7.77778 40.467 7.77778H34.5973L31.8803 21.7778Z" fill="#000004"/>
</g>
<defs>
<radialGradient id="paint0_radial_122_192" cx="0" cy="0" r="1" gradientUnits="userSpaceOnUse" gradientTransform="translate(15.943 4.90882) scale(34.8642 34.8642)">
<stop stop-color="white"/>
<stop offset="0.5" stop-color="#4C6B97"/>
<stop offset="1" stop-color="#231F20"/>
</radialGradient>
<clipPath id="clip0_122_192">
<rect width="53.1" height="28" fill="white"/>
</clipPath>
</defs>
</svg>
