<svg width="50" height="50" viewBox="0 0 50 50" fill="none" xmlns="http://www.w3.org/2000/svg">
<g clip-path="url(#clip0_123_423)">
<path d="M49.7955 28.1744C51.5453 14.477 41.8719 1.9541 28.1994 0.204492C14.527 -1.54531 1.9541 8.12813 0.204492 21.8006C-1.54531 35.473 8.12813 48.0209 21.8006 49.7955C35.498 51.5453 48.0209 41.8719 49.7955 28.1744Z" fill="#FF6C37"/>
<path d="M34.0235 16.0515L23.4752 26.5998L20.5006 23.6252C30.8739 13.2521 31.8987 14.1519 34.0233 16.0515H34.0235Z" fill="white"/>
<path d="M23.4752 26.8497C23.4002 26.8497 23.3502 26.8247 23.3002 26.7747L20.3008 23.8003C20.2771 23.7777 20.2582 23.7506 20.2454 23.7205C20.2325 23.6904 20.2258 23.6581 20.2258 23.6253C20.2258 23.5926 20.2325 23.5603 20.2454 23.5302C20.2582 23.5001 20.2771 23.473 20.3008 23.4504C30.8488 12.9022 31.9486 13.902 34.1732 15.9016C34.2232 15.9516 34.2482 16.0016 34.2482 16.0766C34.2482 16.1516 34.2232 16.2016 34.1732 16.2516L23.6252 26.7747C23.6002 26.8247 23.5252 26.8497 23.4752 26.8497ZM20.8508 23.6253L23.4752 26.2499L33.6484 16.0766C31.7988 14.427 30.5488 13.927 20.8508 23.6254V23.6253Z" fill="#FF6C37"/>
<path d="M26.4997 29.6242L23.6252 26.7496L34.1733 16.2015C36.9979 19.0511 32.7737 23.6752 26.4997 29.6242Z" fill="white"/>
<path d="M26.4996 29.8742C26.4246 29.8742 26.3746 29.8492 26.3248 29.7992L23.4501 26.9246C23.4001 26.8746 23.4001 26.8246 23.4001 26.7496C23.4001 26.6748 23.4251 26.6246 23.4751 26.5748L34.0234 16.0266C34.046 16.0029 34.0731 15.984 34.1032 15.9711C34.1333 15.9582 34.1657 15.9515 34.1984 15.9515C34.2311 15.9515 34.2635 15.9582 34.2936 15.9711C34.3237 15.984 34.3508 16.0029 34.3734 16.0266C34.6925 16.3219 34.9447 16.6822 35.1128 17.0832C35.281 17.4842 35.3612 17.9166 35.3482 18.3512C35.2982 21.1258 32.149 24.65 26.6998 29.7992C26.6248 29.8492 26.5498 29.8742 26.4998 29.8742H26.4996ZM23.9751 26.7496C25.5748 28.3744 26.2498 29.0242 26.4996 29.2742C30.6988 25.275 34.773 21.1758 34.7982 18.3512C34.8232 17.7014 34.5732 17.0514 34.1482 16.5516L23.9751 26.7496Z" fill="#FF6C37"/>
<path d="M20.5507 23.7002L22.6754 25.8248C22.7254 25.8748 22.7254 25.9248 22.6754 25.9748C22.6504 25.9998 22.6504 25.9998 22.6254 25.9998L18.2261 26.9496C18.0011 26.9746 17.8011 26.8246 17.7511 26.5998C17.7261 26.4748 17.7761 26.3498 17.8511 26.2748L20.4007 23.7252C20.4507 23.6752 20.5257 23.6502 20.5507 23.7002Z" fill="white"/>
<path d="M18.1511 27.1997C17.7761 27.1997 17.5013 26.8997 17.5013 26.5249C17.5013 26.3499 17.5763 26.1749 17.7013 26.0499L20.2508 23.5002C20.4008 23.3752 20.6008 23.3752 20.7508 23.5002L22.8754 25.6249C23.0254 25.7499 23.0254 25.9749 22.8754 26.1249C22.8254 26.1749 22.7754 26.1999 22.7004 26.2249L18.3011 27.1747C18.2511 27.1747 18.2011 27.1997 18.1511 27.1997ZM20.4758 23.9752L18.0261 26.4249C17.9761 26.4749 17.9511 26.5499 18.0011 26.6249C18.0261 26.6999 18.1011 26.7247 18.1761 26.6999L22.3004 25.7999L20.4758 23.9752Z" fill="#FF6C37"/>
<path d="M39.5972 10.2027C37.9976 8.65293 35.423 8.70293 33.8734 10.3277C32.3236 11.9523 32.3736 14.502 33.9984 16.0516C34.6397 16.6712 35.468 17.0612 36.3542 17.1607C37.2403 17.2602 38.1345 17.0636 38.8972 16.6016L36.0476 13.752L39.597 10.2027H39.5972Z" fill="white"/>
<path d="M36.7979 17.4263C34.4233 17.4263 32.4987 15.5017 32.4987 13.1271C32.4987 10.7525 34.4233 8.82788 36.7979 8.82788C37.8975 8.82788 38.9725 9.25288 39.7725 10.0277C39.8223 10.0777 39.8473 10.1277 39.8473 10.2027C39.8473 10.2777 39.8223 10.3277 39.7723 10.3777L36.3979 13.7519L39.0475 16.4015C39.1475 16.5015 39.1475 16.6515 39.0475 16.7515L38.9975 16.8015C38.3475 17.2013 37.5727 17.4265 36.7979 17.4265V17.4263ZM36.7979 9.35288C34.6983 9.35288 32.9985 11.0525 33.0235 13.1521C33.0235 15.2517 34.7233 16.9515 36.8229 16.9265C37.3977 16.9265 37.9727 16.8015 38.4975 16.5265L35.8731 13.9269C35.8231 13.8769 35.7981 13.8269 35.7981 13.7519C35.7981 13.6771 35.8231 13.6269 35.8731 13.5771L39.2225 10.2275C38.5475 9.65269 37.6977 9.35288 36.7979 9.35288Z" fill="#FF6C37"/>
<path d="M39.6723 10.2778L39.6223 10.2278L36.0481 13.752L38.8725 16.5766C39.1475 16.4016 39.4223 16.2016 39.6473 15.9766C40.026 15.6057 40.3273 15.1633 40.5338 14.6751C40.7402 14.1868 40.8477 13.6625 40.8501 13.1324C40.8524 12.6023 40.7495 12.0771 40.5473 11.5871C40.3452 11.097 40.0477 10.652 39.6723 10.2778Z" fill="white"/>
<path d="M38.8975 16.8516C38.8225 16.8516 38.7725 16.8266 38.7225 16.7766L35.8729 13.927C35.8231 13.877 35.7981 13.827 35.7981 13.752C35.7981 13.6772 35.8231 13.627 35.8731 13.5772L39.4223 10.0278C39.4449 10.0041 39.472 9.9852 39.5021 9.97231C39.5322 9.95941 39.5646 9.95276 39.5973 9.95276C39.63 9.95276 39.6624 9.95941 39.6925 9.97231C39.7226 9.9852 39.7497 10.0041 39.7723 10.0278L39.8473 10.0778C41.5221 11.7524 41.5221 14.452 39.8723 16.1516C39.6223 16.4016 39.3475 16.6266 39.0475 16.8016C38.9725 16.8266 38.9225 16.8516 38.8975 16.8516ZM36.3979 13.752L38.9225 16.2766C39.1225 16.1516 39.3225 15.9766 39.4723 15.8268C40.8971 14.402 40.9721 12.0774 39.5973 10.5776L36.3981 13.752H36.3979Z" fill="#FF6C37"/>
<path d="M34.4482 16.5015C34.1597 16.2134 33.7686 16.0516 33.3609 16.0516C32.9532 16.0516 32.5621 16.2134 32.2736 16.5015L22.8503 25.9248L24.425 27.4996L34.3982 18.7511C35.0482 18.2011 35.098 17.2263 34.5482 16.5765C34.4982 16.5515 34.4732 16.5265 34.4482 16.5015Z" fill="white"/>
<path d="M24.4 27.7496C24.325 27.7496 24.275 27.7246 24.225 27.6746L22.6503 26.0998C22.6266 26.0772 22.6078 26.0501 22.5949 26.02C22.582 25.9899 22.5753 25.9575 22.5753 25.9248C22.5753 25.892 22.582 25.8597 22.5949 25.8296C22.6078 25.7995 22.6266 25.7723 22.6503 25.7498L32.0736 16.3265C32.239 16.1602 32.4357 16.0282 32.6523 15.9381C32.869 15.848 33.1013 15.8016 33.3359 15.8016C33.5705 15.8016 33.8028 15.848 34.0194 15.9381C34.2361 16.0282 34.4328 16.1602 34.5982 16.3265C34.7646 16.492 34.8966 16.6887 34.9866 16.9053C35.0767 17.1219 35.1231 17.3542 35.1231 17.5888C35.1231 17.8235 35.0767 18.0558 34.9866 18.2724C34.8966 18.489 34.7646 18.6857 34.5982 18.8511L34.5232 18.9261L24.55 27.6746C24.525 27.7246 24.475 27.7496 24.4 27.7496ZM23.2002 25.9248L24.425 27.1496L34.2232 18.5511C34.7732 18.1011 34.8232 17.2763 34.3732 16.7265C33.9234 16.1765 33.0984 16.1265 32.5486 16.5765C32.5236 16.6015 32.4986 16.6265 32.4486 16.6515L23.2002 25.925V25.9248Z" fill="#FF6C37"/>
<path d="M15.6265 36.6479C15.5267 36.6979 15.4767 36.7979 15.5015 36.8979L15.9265 38.6975C16.0265 38.9475 15.8765 39.2475 15.6015 39.3225C15.4017 39.3975 15.1767 39.3225 15.0517 39.1725L12.3021 36.4479L21.2756 27.4746L24.3752 27.5246L26.4748 29.6242C25.9748 30.049 22.9504 32.9736 15.6265 36.6479Z" fill="white"/>
<path d="M15.4267 39.5723C15.2267 39.5723 15.0267 39.4975 14.9017 39.3475L12.1771 36.6229C12.1273 36.5729 12.1023 36.5229 12.1023 36.448C12.1023 36.373 12.1273 36.323 12.1773 36.273L21.1505 27.2996C21.2005 27.2496 21.2755 27.2246 21.3255 27.2246L24.4251 27.2746C24.4999 27.2746 24.5501 27.2996 24.6 27.3496L26.6996 29.4492C26.7496 29.4992 26.7746 29.5742 26.7746 29.6492C26.7746 29.7242 26.7496 29.7742 26.6746 29.8242L26.4996 29.974C23.8501 32.2986 20.2507 34.6232 15.7765 36.8479L16.2015 38.6227C16.2765 38.9475 16.1265 39.2975 15.8265 39.4723C15.6765 39.5475 15.5515 39.5725 15.4267 39.5725V39.5723ZM12.6771 36.448L15.2517 38.9975C15.3267 39.1225 15.4767 39.1725 15.6015 39.0975C15.7265 39.0225 15.7765 38.8725 15.7015 38.7475L15.2767 36.9479C15.2267 36.7229 15.3267 36.5229 15.5267 36.423C19.9507 34.1984 23.5251 31.8988 26.1498 29.6242L24.3001 27.7746L21.4255 27.7246L12.6771 36.448Z" fill="#FF6C37"/>
<path d="M10.1777 38.5976L12.3271 36.448L15.5267 39.6472L10.4275 39.2974C10.2025 39.2724 10.0525 39.0724 10.0777 38.8474C10.0777 38.7474 10.1027 38.6474 10.1775 38.5974L10.1777 38.5976Z" fill="white"/>
<path d="M15.5268 39.8723L10.4026 39.5225C10.0276 39.4975 9.77757 39.1725 9.80277 38.7975C9.82777 38.6475 9.87777 38.4977 10.0028 38.3977L12.1524 36.2481C12.1749 36.2244 12.2021 36.2056 12.2321 36.1927C12.2622 36.1798 12.2946 36.1732 12.3273 36.1732C12.36 36.1732 12.3924 36.1798 12.4224 36.1927C12.4525 36.2056 12.4796 36.2244 12.5022 36.2481L15.7016 39.4473C15.7766 39.5225 15.8016 39.6225 15.7516 39.7223C15.7016 39.8223 15.6266 39.8723 15.5268 39.8723ZM12.3272 36.7981L10.3526 38.7727C10.2776 38.8225 10.2776 38.9475 10.3526 38.9975C10.3776 39.0225 10.4026 39.0475 10.4526 39.0475L14.8768 39.3475L12.3272 36.7979V36.7981ZM20.4008 28.6245C20.2508 28.6245 20.1508 28.4995 20.1508 28.3745C20.1508 28.2995 20.1758 28.2495 20.2258 28.1995L22.6504 25.7749C22.673 25.7511 22.7001 25.7323 22.7302 25.7194C22.7603 25.7065 22.7927 25.6998 22.8254 25.6998C22.8582 25.6998 22.8905 25.7065 22.9206 25.7194C22.9507 25.7323 22.9779 25.7511 23.0004 25.7749L24.575 27.3497C24.65 27.4247 24.675 27.4997 24.65 27.5997C24.625 27.6747 24.55 27.7497 24.45 27.7747L20.4508 28.6243H20.4008V28.6245ZM22.8254 26.2999L21.1756 27.9495L23.8752 27.3747L22.8254 26.2999Z" fill="#FF6C37"/>
<path d="M24.3751 27.5247L21.6256 28.1245C21.4256 28.1745 21.2256 28.0495 21.1756 27.8495C21.1506 27.7245 21.1756 27.5995 21.2756 27.4997L22.8004 25.9749L24.3751 27.5247Z" fill="white"/>
<path d="M21.5756 28.3744C21.4933 28.3753 21.4116 28.3597 21.3354 28.3286C21.2592 28.2975 21.19 28.2514 21.1318 28.1932C21.0736 28.135 21.0276 28.0658 20.9965 27.9896C20.9654 27.9134 20.9498 27.8317 20.9506 27.7494C20.9506 27.5746 21.0256 27.4246 21.1256 27.2996L22.6504 25.7748C22.673 25.7511 22.7001 25.7322 22.7302 25.7193C22.7603 25.7065 22.7927 25.6998 22.8254 25.6998C22.8581 25.6998 22.8905 25.7065 22.9206 25.7193C22.9507 25.7322 22.9778 25.7511 23.0004 25.7748L24.575 27.3496C24.65 27.4246 24.675 27.4996 24.65 27.5996C24.625 27.6746 24.55 27.7496 24.45 27.7746L21.7006 28.3744H21.5756ZM22.8254 26.2998L21.4756 27.6494C21.4256 27.6996 21.4256 27.7496 21.4506 27.7994C21.4756 27.8494 21.5256 27.8744 21.6006 27.8744L23.9002 27.3744L22.8254 26.2998ZM39.6973 12.6772C39.6473 12.5274 39.4723 12.4524 39.3223 12.5024C39.1725 12.5524 39.0975 12.7272 39.1475 12.8774C39.1475 12.9022 39.1725 12.9272 39.1725 12.9522C39.3225 13.2522 39.2725 13.6272 39.0725 13.902C38.9725 14.027 38.9975 14.202 39.0975 14.302C39.2225 14.402 39.3973 14.377 39.4973 14.252C39.8723 13.777 39.9473 13.1772 39.6973 12.6772Z" fill="#FF6C37"/>
</g>
<defs>
<clipPath id="clip0_123_423">
<rect width="50" height="50" fill="white"/>
</clipPath>
</defs>
</svg>
