<svg width="50" height="50" viewBox="0 0 50 50" fill="none" xmlns="http://www.w3.org/2000/svg">
<path d="M24.8203 3.28126C13.7266 3.28126 14.4281 8.07814 14.4281 8.07814V13.0625H24.9781V14.625H10.2266C10.2266 14.625 3.125 13.75 3.125 25.0078C3.125 36.2656 9.39531 35.8078 9.39531 35.8078H13.0156V30.5563C13.0156 30.5563 12.8125 24.286 19.1094 24.286H29.675C29.675 24.286 35.5688 24.3797 35.5688 18.5797V9.06251C35.5688 9.06251 36.4625 3.26251 24.8781 3.26251L24.8203 3.28126ZM18.9891 6.62032C19.3641 6.61086 19.7336 6.71283 20.0507 6.91335C20.3678 7.11386 20.6183 7.40391 20.7706 7.74681C20.9228 8.08971 20.97 8.47005 20.9061 8.83975C20.8421 9.20945 20.67 9.55189 20.4115 9.82377C20.1529 10.0956 19.8196 10.2847 19.4536 10.3671C19.0875 10.4496 18.7053 10.4216 18.3552 10.2867C18.0051 10.1519 17.7028 9.91626 17.4866 9.60963C17.2704 9.303 17.15 8.93914 17.1406 8.56407V8.53282C17.1406 8.02974 17.3405 7.54727 17.6962 7.19153C18.0519 6.8358 18.5344 6.63595 19.0375 6.63595L18.9891 6.62032Z" fill="url(#paint0_linear_122_197)"/>
<path d="M25.1328 46.7344C36.2265 46.7344 35.525 41.9219 35.525 41.9219V36.9531H24.9765V35.3906H39.7734C39.7734 35.3906 46.875 36.1844 46.875 24.9922C46.875 13.8 40.6047 14.1922 40.6047 14.1922H36.9375V19.375C36.9375 19.375 37.1406 25.6453 30.8437 25.6453H20.2734C20.2734 25.6453 14.375 25.5562 14.375 31.3562V40.9375C14.375 40.9375 13.4812 46.7375 25.0656 46.7375H25.1281L25.1328 46.7344ZM30.964 43.3797C30.589 43.3891 30.2195 43.2872 29.9024 43.0866C29.5853 42.8861 29.3348 42.5961 29.1825 42.2532C29.0303 41.9103 28.9831 41.5299 29.0471 41.1602C29.111 40.7905 29.2831 40.4481 29.5416 40.1762C29.8002 39.9044 30.1335 39.7153 30.4996 39.6328C30.8656 39.5504 31.2478 39.5784 31.5979 39.7133C31.948 39.8481 32.2503 40.0837 32.4665 40.3904C32.6827 40.697 32.8031 41.0609 32.8125 41.4359V41.4828C32.8125 41.9859 32.6126 42.4684 32.2569 42.8241C31.9012 43.1798 31.4187 43.3797 30.9156 43.3797H30.9625H30.964Z" fill="url(#paint1_linear_122_197)"/>
<defs>
<linearGradient id="paint0_linear_122_197" x1="7.44869" y1="7.53579" x2="28.2091" y2="28.2492" gradientUnits="userSpaceOnUse">
<stop stop-color="#387EB8"/>
<stop offset="1" stop-color="#366994"/>
</linearGradient>
<linearGradient id="paint1_linear_122_197" x1="19.7304" y1="21.029" x2="43.4495" y2="41.7362" gradientUnits="userSpaceOnUse">
<stop stop-color="#FFE052"/>
<stop offset="1" stop-color="#FFC331"/>
</linearGradient>
</defs>
</svg>
