<svg width="53" height="47" viewBox="0 0 53 47" fill="none" xmlns="http://www.w3.org/2000/svg">
<g clip-path="url(#clip0_123_279)">
<path d="M43.3908 15.2181C42.8292 15.0254 42.2628 14.8469 41.6922 14.6827C41.7881 14.2911 41.8763 13.9041 41.9546 13.524C43.2405 7.28187 42.3999 2.25308 39.5286 0.597359C36.7756 -0.989922 32.2733 0.665179 27.7262 4.62245C27.2781 5.01316 26.8399 5.41512 26.4121 5.82796C26.1257 5.55344 25.8342 5.28424 25.5378 5.02051C20.7723 0.789276 15.9956 -0.994045 13.1273 0.666416C10.3768 2.25864 9.56236 6.98606 10.72 12.9019C10.8352 13.4878 10.9653 14.0707 11.1101 14.6499C10.4339 14.8421 9.78148 15.0466 9.15708 15.2642C3.56985 17.2123 0.00177002 20.265 0.00177002 23.4315C0.00177002 26.7019 3.83227 29.9823 9.65161 31.9713C10.1234 32.1319 10.5991 32.2807 11.0783 32.4176C10.9227 33.0415 10.7845 33.6697 10.664 34.3013C9.56029 40.1145 10.4222 44.7301 13.1653 46.3123C15.9985 47.9461 20.7537 46.2669 25.3838 42.2194C25.7593 41.8903 26.1265 41.5519 26.485 41.2045C26.9484 41.6516 27.424 42.0856 27.9115 42.5061C32.3967 46.3655 36.8263 47.9239 39.5667 46.3374C42.3972 44.6988 43.3172 39.7403 42.1228 33.7076C42.0288 33.235 41.9233 32.7647 41.8064 32.2972C42.1404 32.1983 42.4681 32.0964 42.7877 31.9905C48.8375 29.9862 52.7737 26.7456 52.7737 23.4315C52.7737 20.2535 49.0904 17.1801 43.3908 15.2181ZM42.0787 29.8507C41.7901 29.9462 41.4941 30.0383 41.1923 30.128C40.5244 28.0136 39.6232 25.7654 38.5201 23.4424C39.5727 21.1749 40.4393 18.9554 41.0884 16.8548C41.6283 17.0111 42.1521 17.1758 42.6572 17.3496C47.5406 19.0308 50.5194 21.5163 50.5194 23.4315C50.5194 25.4715 47.3023 28.1198 42.0787 29.8507ZM39.9114 34.1455C40.4395 36.8129 40.5147 39.2248 40.1649 41.1103C39.8508 42.8046 39.2187 43.934 38.4371 44.3865C36.7741 45.3492 33.2176 44.0979 29.3819 40.7972C28.9285 40.4062 28.486 40.0027 28.055 39.5872C29.5421 37.9609 31.0282 36.0704 32.4786 33.9707C35.0298 33.7443 37.44 33.3741 39.6257 32.8688C39.731 33.2921 39.8262 33.7177 39.9114 34.1455ZM17.9929 44.2202C16.3681 44.7938 15.0739 44.8103 14.2916 44.3593C12.627 43.3993 11.935 39.6931 12.8789 34.7218C12.9912 34.1344 13.1196 33.5502 13.2642 32.9698C15.4258 33.4481 17.8185 33.7919 20.3757 33.9993C21.836 36.0539 23.3649 37.9424 24.9058 39.596C24.5783 39.9129 24.2431 40.2216 23.9004 40.522C21.8529 42.3117 19.8011 43.5815 17.9929 44.2202ZM10.3809 29.8382C7.80769 28.9586 5.68259 27.8155 4.226 26.5682C2.91701 25.4474 2.25633 24.3344 2.25633 23.4315C2.25633 21.5099 5.12106 19.0589 9.89919 17.3931C10.4791 17.191 11.0859 17.0004 11.7157 16.8214C12.3762 18.9694 13.2424 21.2153 14.2877 23.4864C13.2288 25.791 12.3502 28.0728 11.6833 30.2461C11.2459 30.1208 10.8117 29.9848 10.3809 29.8382ZM12.9325 12.4688C11.9408 7.4004 12.5994 3.57712 14.257 2.61753C16.0224 1.59549 19.9263 3.0527 24.041 6.70633C24.3094 6.94512 24.5733 7.18875 24.8328 7.43709C23.2996 9.08354 21.7846 10.958 20.3373 13.0004C17.8554 13.2305 15.4796 13.5999 13.2954 14.0948C13.1608 13.556 13.0398 13.0139 12.9325 12.469V12.4688ZM35.696 18.0898C35.1801 17.1986 34.645 16.3187 34.0912 15.4506C35.775 15.6635 37.3882 15.9462 38.9031 16.2916C38.4484 17.7495 37.8815 19.2735 37.2142 20.836C36.7265 19.9106 36.2203 18.995 35.696 18.0898ZM26.4131 9.04829C27.4529 10.1748 28.4943 11.4325 29.5186 12.7972C27.4407 12.699 25.3593 12.6986 23.2814 12.7959C24.3068 11.4438 25.357 10.1878 26.4131 9.04829ZM17.0706 18.1053C16.5529 19.0032 16.0561 19.9131 15.5808 20.8342C14.9245 19.2772 14.3627 17.7462 13.9041 16.2677C15.4097 15.9309 17.0154 15.6555 18.6884 15.4465C18.1284 16.3199 17.589 17.2063 17.0706 18.1051V18.1053ZM18.7364 31.577C17.0079 31.384 15.3782 31.1228 13.873 30.7951C14.3388 29.2902 14.9129 27.7267 15.5835 26.1363C16.0607 27.0581 16.5595 27.9685 17.0795 28.8668C17.6142 29.7903 18.1679 30.6949 18.7364 31.577ZM26.4754 37.9735C25.4067 36.8208 24.341 35.5454 23.3002 34.1737C24.3107 34.2133 25.3408 34.2335 26.3877 34.2335C27.4634 34.2335 28.5267 34.2094 29.5732 34.1628C28.5456 35.5592 27.5081 36.8364 26.4754 37.9735ZM37.2355 26.0551C37.9409 27.663 38.5354 29.2183 39.0075 30.6973C37.4775 31.0466 35.8255 31.3277 34.0848 31.5365C34.6426 30.6523 35.1827 29.7571 35.7049 28.8514C36.2358 27.9307 36.7461 26.9984 37.2355 26.0551ZM33.7521 27.725C32.9527 29.1137 32.1084 30.4759 31.2205 31.8097C29.6121 31.9236 28.0002 31.9802 26.3877 31.9793C24.7454 31.9793 23.148 31.9282 21.6098 31.8284C20.6987 30.4978 19.8383 29.1331 19.0304 27.7374H19.0306C18.2265 26.349 17.4754 24.9307 16.7789 23.4853C17.4736 22.0396 18.2224 20.6206 19.0238 19.2312L19.0236 19.2314C19.8246 17.8417 20.6782 16.4828 21.5824 15.1579C23.1518 15.0391 24.7611 14.9773 26.3875 14.9773H26.3877C28.0216 14.9773 29.633 15.0398 31.2019 15.1593C32.097 16.4823 32.9451 17.8365 33.7447 19.2193C34.5487 20.6056 35.3074 22.0177 36.0197 23.4534C35.3148 24.9037 34.5584 26.3285 33.7521 27.725ZM38.4026 2.55033C40.1697 3.56949 40.8569 7.67931 39.7467 13.0688C39.6758 13.4127 39.5962 13.7629 39.5096 14.1181C37.32 13.6126 34.9426 13.2369 32.4534 13.0033C31.0034 10.9384 29.5009 9.06107 27.9925 7.43586C28.3878 7.05481 28.7926 6.68364 29.2063 6.3227C33.1024 2.93231 36.7436 1.59363 38.4026 2.55033ZM26.3877 18.7192C28.9903 18.7192 31.1001 20.829 31.1001 23.4315C31.1001 26.034 28.9903 28.1439 26.3877 28.1439C23.7852 28.1439 21.6754 26.034 21.6754 23.4315C21.6754 20.829 23.7852 18.7192 26.3877 18.7192Z" fill="#00D8FF"/>
</g>
<defs>
<clipPath id="clip0_123_279">
<rect width="52.7743" height="47" fill="white"/>
</clipPath>
</defs>
</svg>
