<svg width="39" height="39" viewBox="0 0 39 39" fill="none" xmlns="http://www.w3.org/2000/svg">
<g clip-path="url(#clip0_406_18)">
<path d="M0 0H39V39H0V0Z" fill="#34BDB2"/>
<path d="M25.664 13.2602C23.6049 12.0655 21.7771 11.126 19.3859 11.1674C18.0178 11.1912 16.8433 11.9348 16.5963 13.2957C16.3664 14.5618 17.4919 15.2641 18.6629 15.6952C20.6048 16.4103 22.2953 17.1653 24.2034 17.9604C27.6722 19.406 29.4508 21.7471 29.2405 24.7508C28.973 28.5727 26.6729 31.3138 23.0175 32.2175C18.2409 33.3985 13.6025 31.5996 9.68341 29.0884C10.6726 27.5815 11.8202 26.5529 12.8034 25.0552C15.0675 26.0189 16.8463 27.3212 19.215 27.5243C20.8851 27.6675 22.7775 27.5878 23.1527 25.6261C23.4909 23.857 21.9514 22.9087 20.4497 22.379C18.6619 21.7484 16.8775 20.9771 15.1244 20.2611C11.8836 18.9374 10.5649 16.3483 10.7868 13.2982C10.7868 11.5099 12.2707 7.89522 15.9088 6.77092C21.4986 5.04334 24.5784 6.81236 28.6318 9.41729C27.5552 10.8411 26.7275 11.8534 25.664 13.2602Z" fill="white"/>
</g>
<defs>
<clipPath id="clip0_406_18">
<rect width="39" height="39" fill="white"/>
</clipPath>
</defs>
</svg>
