<svg width="52" height="31" viewBox="0 0 52 31" fill="none" xmlns="http://www.w3.org/2000/svg">
<g clip-path="url(#clip0_122_216)">
<path d="M25.7694 0C18.8985 0 14.604 3.43556 12.8863 10.3065C15.4629 6.87093 18.4689 5.58262 21.9045 6.44156C23.8645 6.93152 25.2656 8.35369 26.8164 9.92765C29.3427 12.492 32.2663 15.4597 38.6525 15.4597C45.5235 15.4597 49.818 12.0242 51.5356 5.15325C48.959 8.58881 45.953 9.87712 42.5175 9.01818C40.5574 8.52822 39.1564 7.10604 37.6056 5.53209C35.0793 2.96775 32.1556 0 25.7694 0ZM12.8863 15.4597C6.01536 15.4597 1.72086 18.8953 0.00317383 25.7662C2.5798 22.3307 5.58579 21.0424 9.02136 21.9013C10.9814 22.3913 12.3824 23.8134 13.9332 25.3874C16.4595 27.9517 19.3832 30.9195 25.7694 30.9195C32.6403 30.9195 36.9348 27.4839 38.6525 20.613C36.0759 24.0485 33.0699 25.3369 29.6343 24.4779C27.6743 23.988 26.2733 22.5658 24.7225 20.9918C22.1962 18.4275 19.2725 15.4597 12.8863 15.4597Z" fill="url(#paint0_linear_122_216)"/>
</g>
<defs>
<linearGradient id="paint0_linear_122_216" x1="-1.4284" y1="9.89423" x2="43.0783" y2="35.556" gradientUnits="userSpaceOnUse">
<stop stop-color="#2298BD"/>
<stop offset="1" stop-color="#0ED7B5"/>
</linearGradient>
<clipPath id="clip0_122_216">
<rect width="51.5353" height="31" fill="white"/>
</clipPath>
</defs>
</svg>
