<svg width="53" height="12" viewBox="0 0 53 12" fill="none" xmlns="http://www.w3.org/2000/svg">
<g clip-path="url(#clip0_122_214)">
<path d="M26.4245 2.99752C24.3562 2.99752 22.865 4.34638 22.865 6.36962C22.865 8.39296 24.5436 9.74183 26.6119 9.74183C27.8615 9.74183 28.963 9.24724 29.645 8.41355L28.2117 7.58555C27.8333 7.99955 27.2581 8.24121 26.6118 8.24121C25.7145 8.24121 24.952 7.7729 24.669 7.02352H29.9184C29.9597 6.81362 29.984 6.59628 29.984 6.36776C29.984 4.34638 28.4928 2.99741 26.4245 2.99741V2.99752ZM24.6524 5.71396C24.8865 4.96645 25.5273 4.49617 26.4227 4.49617C27.3201 4.49617 27.9609 4.96645 28.1931 5.71396H24.6524ZM46.5977 2.99741C44.5295 2.99741 43.0381 4.34638 43.0381 6.36962C43.0381 8.39296 44.7167 9.74183 46.785 9.74183C48.0346 9.74183 49.1361 9.24724 49.8181 8.41355L48.3849 7.58555C48.0065 7.99955 47.4314 8.24121 46.785 8.24121C45.8876 8.24121 45.1251 7.7729 44.8423 7.02352H50.0914C50.1326 6.81362 50.1569 6.59628 50.1569 6.36776C50.1569 4.34638 48.6657 2.99741 46.5975 2.99741H46.5977ZM44.8273 5.71396C45.0615 4.96645 45.7021 4.49617 46.5977 4.49617C47.495 4.49617 48.1358 4.96645 48.368 5.71396H44.8273ZM37.5153 6.36962C37.5153 7.49369 38.2497 8.24307 39.3887 8.24307C40.1605 8.24307 40.7394 7.89279 41.0374 7.32134L42.4761 8.15131C41.8804 9.14421 40.7638 9.74183 39.3887 9.74183C37.3186 9.74183 35.8293 8.39286 35.8293 6.36962C35.8293 4.34638 37.3205 2.99752 39.3887 2.99752C40.7638 2.99752 41.8785 3.59514 42.4761 4.58803L41.0374 5.418C40.7394 4.84655 40.1605 4.49628 39.3887 4.49628C38.2516 4.49628 37.5153 5.24555 37.5153 6.36972V6.36962ZM52.9672 0.936724V9.55448H51.2811V0.936724H52.9672ZM6.92405 0L13.8463 11.99H0.00170898L6.92405 0ZM24.2307 0.936724L19.0395 9.92917L13.8482 0.936724H15.7947L19.0395 6.55707L22.2843 0.936724H24.2307ZM35.2671 3.18486V5.00017C35.0798 4.94586 34.8812 4.90841 34.6676 4.90841C33.5791 4.90841 32.7942 5.65779 32.7942 6.78186V9.55448H31.1081V3.18486H32.7942V4.90831C32.7942 3.95659 33.9014 3.18486 35.2671 3.18486Z" fill="black"/>
</g>
<defs>
<clipPath id="clip0_122_214">
<rect width="52.9663" height="12" fill="white"/>
</clipPath>
</defs>
</svg>
