<svg width="46" height="46" viewBox="0 0 46 46" fill="none" xmlns="http://www.w3.org/2000/svg">
<g clip-path="url(#clip0_123_449)">
<path fill-rule="evenodd" clip-rule="evenodd" d="M22.8104 0.000356589C28.7346 0.000356589 34.659 0.000356589 40.5831 0C41.3266 0 42.063 0.0645426 42.7763 0.282062C44.3231 0.753473 45.142 1.86264 45.4629 3.39116C45.5904 3.99736 45.6266 4.61516 45.6278 5.23295C45.6373 9.38186 45.6442 13.5311 45.6446 17.6804C45.6449 25.2372 45.6458 32.7941 45.6303 40.3507C45.6282 41.4086 45.5718 42.478 45.0496 43.4417C44.4703 44.5103 43.6773 45.3562 42.4733 45.7281C42.2557 45.7953 42.0286 45.8718 41.8055 45.8718C41.2917 45.8722 40.7916 45.9995 40.2793 45.9995C28.6782 45.9986 17.0773 46.0053 5.47623 45.987C4.5327 45.9852 3.57383 45.9166 2.67754 45.5327C2.49925 45.456 2.31917 45.3918 2.16227 45.2724C1.02119 44.4028 0.24632 43.3183 0.080149 41.8507C0.0204203 41.3215 0.00134277 40.7952 0.00134277 40.2659C0.00312572 28.507 0.00419549 16.7481 0.0102575 4.98922C0.0107924 4.30706 0.0177459 3.61314 0.227599 2.96022C0.786374 1.2206 2.00912 0.270829 3.82166 0.0779147C4.24297 0.0329845 4.66785 0.00392248 5.09112 0.00356589C10.9971 -0.00124806 16.9038 0.000356589 22.8102 0.000356589H22.8104Z" fill="#FB7A24"/>
<path fill-rule="evenodd" clip-rule="evenodd" d="M22.9608 29.2605C22.8311 30.0546 22.74 30.7724 22.4548 31.4339C21.1193 34.5334 18.8432 36.422 15.431 36.7981C11.3978 37.2424 7.67253 34.753 6.55249 30.8869C6.14651 29.4859 6.18716 28.0575 6.33443 26.6315C6.49151 25.1078 6.94046 23.6629 7.64133 22.2997C7.74171 22.1048 7.73975 21.9577 7.61423 21.7689C6.53804 20.1503 6.12048 18.3622 6.27203 16.4322C6.35315 15.4006 6.60366 14.4139 7.07132 13.4896C8.44223 10.7822 11.452 8.48453 15.4831 8.86608C19.0276 9.20128 22.3105 12.2589 22.8229 15.6974C22.8488 15.87 22.8973 16.0394 22.954 16.294C23.0389 15.8329 23.1002 15.4525 23.1795 15.0755C23.8398 11.9516 26.8977 8.6828 31.232 8.64232C35.6252 8.60167 38.8785 12.0472 39.4924 15.2472C39.7518 16.5996 39.7067 17.9507 39.4928 19.3013C39.281 20.645 38.8805 21.952 38.3032 23.1837C38.1755 23.4563 38.1887 23.6526 38.3522 23.9058C39.2984 25.3721 39.716 26.9817 39.6625 28.7297C39.5505 32.3771 36.9708 35.6479 33.4218 36.5033C28.467 37.6974 24.6688 34.7341 23.3906 31.149C23.182 30.5654 23.0834 29.9562 22.9609 29.2605H22.9608ZM31.9627 22.8526C32.0156 22.6463 32.1754 22.5227 32.2902 22.3701C33.5326 20.7191 34.186 18.875 34.0402 16.7984C33.9339 15.2829 32.6874 14.2153 31.1785 14.2718C29.6686 14.3283 28.5309 15.4928 28.5095 17.0036C28.5079 17.1274 28.5154 17.2513 28.5077 17.3741C28.4037 18.9843 27.5153 19.8663 26.169 19.9647C25.9231 19.9827 25.6765 20.0047 25.4303 20.0054C23.683 20.0093 21.9359 20.0086 20.1885 20.007C19.4254 20.0063 18.6687 20.0894 17.9419 20.3137C14.5495 21.3603 12.5714 23.6802 11.9163 27.1379C11.7865 27.822 11.6697 28.532 11.894 29.2346C12.2158 30.2425 12.8158 30.9921 13.8777 31.2428C14.9783 31.5025 15.937 31.2151 16.6987 30.3506C17.191 29.7916 17.3463 29.1275 17.383 28.3986C17.4782 26.5238 18.4991 25.5867 20.2018 25.6008C22.8137 25.6226 25.4259 25.6054 28.0381 25.6074C28.5016 25.6076 28.5059 25.6138 28.5082 26.0724C28.5127 26.9193 28.4866 27.7674 28.5193 28.6135C28.5724 29.9947 29.7877 31.1427 31.1965 31.1832C32.6493 31.2248 33.9442 30.1502 34.0389 28.7475C34.1206 27.5333 34.1154 26.3118 34.0357 25.0968C33.974 24.1563 33.4652 23.4859 32.6029 23.0968C32.3961 23.0038 32.1786 22.9341 31.9627 22.8526ZM15.5895 20.0027C16.1513 20.0027 16.6099 19.9975 17.0681 20.005C17.2953 20.0086 17.3794 19.9109 17.3776 19.6882C17.3702 18.8069 17.4156 17.9227 17.3595 17.0446C17.2853 15.8863 16.6693 15.0488 15.5908 14.6264C14.485 14.1933 13.473 14.4405 12.6172 15.2572C11.7576 16.0779 11.643 17.0815 11.9438 18.1798C12.2201 19.1893 12.8727 19.7627 13.8993 19.936C14.4955 20.0364 15.0951 19.9883 15.5895 20.0027Z" fill="white"/>
</g>
<defs>
<clipPath id="clip0_123_449">
<rect width="45.6451" height="46" fill="white"/>
</clipPath>
</defs>
</svg>
